<svg viewBox="0 0 66 28" xmlns="http://www.w3.org/2000/svg"><path d="m56.8 1.1h-6.4-5.3-3.4-12.4v1.9h1.6c.3 0 .5 0 .7.1s.4.2.6.3c.2.2.3.4.4.7s.1.7.1 1.2v13.2c0 1.2-.1 2.2-.4 3.1-.3.8-.6 1.5-1.1 2-.4.5-1 .9-1.5 1.1-.6.2-1.2.3-1.8.3h-.7s0 0-.1 0c-.3-.1-.5-.2-.8-.4-.2-.2-.5-.5-.7-.8s-.4-.8-.6-1.3l-8-21.2h-5.2l-8 21.1c-.2.5-.4 1-.7 1.3-.2.3-.4.6-.7.8-.2.2-.5.3-.8.4-.2.1-.5.1-.9.1h-.4v1.9h9.9v-1.9h-1.6c-.2 0-.4 0-.6-.1s-.4-.1-.5-.3c-.2-.1-.3-.3-.4-.4-.1-.2-.1-.4-.1-.6 0-.3.1-.6.2-1s.2-.7.3-1l1.1-3.1h9.3l1.3 3.6c.1.2.1.4.2.7s.1.6.1.8 0 .5-.1.6c-.1.2-.2.3-.4.4s-.3.2-.5.2c-.4.2-.6.2-.8.2h-1.5v1.9h11.1 1.4.1c.8 0 1.6 0 2.4-.1s1.6-.3 2.4-.6 1.4-.6 2.1-1.1c.6-.4 1.2-1 1.6-1.6.5-.6.8-1.4 1.1-2.2s.4-1.8.4-2.9v-13.1c0-.5.1-.9.2-1.2s.2-.5.4-.7.4-.3.6-.3h5.1 3.7.2l-8.2 23.9h5.6l1.9-6.1h9.9l1.9 6.1h5.6zm-47.6 15.2 2.3-6.1c.1-.4.3-.9.5-1.3.2-.5.3-.9.5-1.4s.3-.9.5-1.3c.1-.4.3-.8.4-1.2.1.4.2.9.3 1.3.1.5.3.9.4 1.4s.3.9.4 1.4.3.9.4 1.3l2 5.9zm40.6-.1 1-3.1s.4-1.4.5-1.6c.1-.3.4-1.3.5-1.7s.4-1.3.5-1.8l1.1-3.4 1.1 3.5c.2.6.3.9.4 1.4s.3.8.3 1l1.8 5.6h-7.2z" fill="#fff"/></svg>