<svg width="88" height="92" viewBox="0 0 88 92" fill="none" xmlns="http://www.w3.org/2000/svg">
<path d="M18.12 22.576C18.12 24.4107 17.9707 26.0533 17.672 27.504C17.3947 28.9547 16.936 30.192 16.296 31.216C15.6773 32.2187 14.856 32.9867 13.832 33.52C12.8293 34.0533 11.592 34.32 10.12 34.32C8.28533 34.32 6.78133 33.8507 5.608 32.912C4.43467 31.9733 3.56 30.6293 2.984 28.88C2.42933 27.1307 2.152 25.0293 2.152 22.576C2.152 20.1013 2.408 17.9893 2.92 16.24C3.432 14.4907 4.27467 13.1467 5.448 12.208C6.62133 11.2693 8.17867 10.8 10.12 10.8C11.9547 10.8 13.4587 11.2693 14.632 12.208C15.8053 13.1253 16.68 14.4693 17.256 16.24C17.832 17.9893 18.12 20.1013 18.12 22.576ZM6.952 22.576C6.952 24.304 7.048 25.7547 7.24 26.928C7.432 28.08 7.752 28.9547 8.2 29.552C8.66933 30.128 9.30933 30.416 10.12 30.416C10.9307 30.416 11.56 30.128 12.008 29.552C12.4773 28.976 12.808 28.112 13 26.96C13.2133 25.7867 13.32 24.3253 13.32 22.576C13.32 20.8267 13.2133 19.376 13 18.224C12.808 17.0507 12.4773 16.176 12.008 15.6C11.56 15.0027 10.9307 14.704 10.12 14.704C9.30933 14.704 8.66933 15.0027 8.2 15.6C7.752 16.176 7.432 17.0507 7.24 18.224C7.048 19.376 6.952 20.8267 6.952 22.576ZM28.4645 10.864C29.7872 10.864 30.9925 11.0667 32.0805 11.472C33.1898 11.8773 34.0752 12.4853 34.7365 13.296C35.4192 14.1067 35.7605 15.1307 35.7605 16.368C35.7605 17.2853 35.5792 18.096 35.2165 18.8C34.8538 19.4827 34.3632 20.08 33.7445 20.592C33.1472 21.104 32.4538 21.552 31.6645 21.936C32.4752 22.3627 33.2432 22.864 33.9685 23.44C34.7152 23.9947 35.3125 24.656 35.7605 25.424C36.2298 26.1707 36.4645 27.056 36.4645 28.08C36.4645 29.3387 36.1232 30.4373 35.4405 31.376C34.7792 32.3147 33.8405 33.04 32.6245 33.552C31.4298 34.064 30.0432 34.32 28.4645 34.32C26.7578 34.32 25.3072 34.0747 24.1125 33.584C22.9178 33.0933 22.0005 32.3893 21.3605 31.472C20.7418 30.5547 20.4325 29.4667 20.4325 28.208C20.4325 27.1627 20.6245 26.256 21.0085 25.488C21.4138 24.72 21.9472 24.0587 22.6085 23.504C23.2698 22.928 24.0058 22.448 24.8165 22.064C24.1338 21.6373 23.5152 21.1573 22.9605 20.624C22.4058 20.0693 21.9578 19.4507 21.6165 18.768C21.2965 18.064 21.1365 17.2533 21.1365 16.336C21.1365 15.12 21.4778 14.1067 22.1605 13.296C22.8432 12.4853 23.7392 11.8773 24.8485 11.472C25.9792 11.0667 27.1845 10.864 28.4645 10.864ZM24.9125 27.92C24.9125 28.752 25.2005 29.4347 25.7765 29.968C26.3738 30.5013 27.2485 30.768 28.4005 30.768C29.2112 30.768 29.8725 30.6507 30.3845 30.416C30.9178 30.1813 31.3125 29.8507 31.5685 29.424C31.8458 28.9973 31.9845 28.5067 31.9845 27.952C31.9845 27.376 31.8138 26.8747 31.4725 26.448C31.1312 26 30.7045 25.6053 30.1925 25.264C29.7018 24.9013 29.1898 24.5707 28.6565 24.272L28.2405 24.048C27.5792 24.3467 26.9925 24.688 26.4805 25.072C25.9898 25.456 25.6058 25.8827 25.3285 26.352C25.0512 26.8 24.9125 27.3227 24.9125 27.92ZM28.4325 14.384C27.6432 14.384 26.9818 14.5867 26.4485 14.992C25.9365 15.3973 25.6805 15.9733 25.6805 16.72C25.6805 17.232 25.8085 17.6907 26.0645 18.096C26.3205 18.48 26.6618 18.8213 27.0885 19.12C27.5152 19.3973 27.9738 19.664 28.4645 19.92C28.9552 19.6853 29.4032 19.4293 29.8085 19.152C30.2352 18.8747 30.5765 18.544 30.8325 18.16C31.0885 17.7547 31.2165 17.2747 31.2165 16.72C31.2165 15.9733 30.9498 15.3973 30.4165 14.992C29.9045 14.5867 29.2432 14.384 28.4325 14.384ZM67.995 70.576C67.995 72.4107 67.8457 74.0533 67.547 75.504C67.2697 76.9547 66.811 78.192 66.171 79.216C65.5523 80.2187 64.731 80.9867 63.707 81.52C62.7043 82.0533 61.467 82.32 59.995 82.32C58.1603 82.32 56.6563 81.8507 55.483 80.912C54.3097 79.9733 53.435 78.6293 52.859 76.88C52.3043 75.1307 52.027 73.0293 52.027 70.576C52.027 68.1013 52.283 65.9893 52.795 64.24C53.307 62.4907 54.1497 61.1467 55.323 60.208C56.4963 59.2693 58.0537 58.8 59.995 58.8C61.8297 58.8 63.3337 59.2693 64.507 60.208C65.6803 61.1253 66.555 62.4693 67.131 64.24C67.707 65.9893 67.995 68.1013 67.995 70.576ZM56.827 70.576C56.827 72.304 56.923 73.7547 57.115 74.928C57.307 76.08 57.627 76.9547 58.075 77.552C58.5443 78.128 59.1843 78.416 59.995 78.416C60.8057 78.416 61.435 78.128 61.883 77.552C62.3523 76.976 62.683 76.112 62.875 74.96C63.0883 73.7867 63.195 72.3253 63.195 70.576C63.195 68.8267 63.0883 67.376 62.875 66.224C62.683 65.0507 62.3523 64.176 61.883 63.6C61.435 63.0027 60.8057 62.704 59.995 62.704C59.1843 62.704 58.5443 63.0027 58.075 63.6C57.627 64.176 57.307 65.0507 57.115 66.224C56.923 67.376 56.827 68.8267 56.827 70.576ZM82.4035 82H77.5715V68.784C77.5715 68.4213 77.5715 67.9733 77.5715 67.44C77.5928 66.9067 77.6142 66.352 77.6355 65.776C77.6568 65.2 77.6782 64.688 77.6995 64.24C77.5928 64.368 77.3582 64.6027 76.9955 64.944C76.6542 65.264 76.3342 65.552 76.0355 65.808L73.4115 67.92L71.0755 65.008L78.4355 59.152H82.4035V82Z" fill="#A9EEFD"/>
<line x1="76.8041" y1="7.82163" x2="2.82163" y2="72.1959" stroke="#A9EEFD" stroke-width="4" stroke-linecap="round"/>
</svg>
