<svg width="88" height="83" viewBox="0 0 88 83" fill="none" xmlns="http://www.w3.org/2000/svg">
<path d="M18.12 22.576C18.12 24.4107 17.9707 26.0533 17.672 27.504C17.3947 28.9547 16.936 30.192 16.296 31.216C15.6773 32.2187 14.856 32.9867 13.832 33.52C12.8293 34.0533 11.592 34.32 10.12 34.32C8.28533 34.32 6.78133 33.8507 5.608 32.912C4.43467 31.9733 3.56 30.6293 2.984 28.88C2.42933 27.1307 2.152 25.0293 2.152 22.576C2.152 20.1013 2.408 17.9893 2.92 16.24C3.432 14.4907 4.27467 13.1467 5.448 12.208C6.62133 11.2693 8.17867 10.8 10.12 10.8C11.9547 10.8 13.4587 11.2693 14.632 12.208C15.8053 13.1253 16.68 14.4693 17.256 16.24C17.832 17.9893 18.12 20.1013 18.12 22.576ZM6.952 22.576C6.952 24.304 7.048 25.7547 7.24 26.928C7.432 28.08 7.752 28.9547 8.2 29.552C8.66933 30.128 9.30933 30.416 10.12 30.416C10.9307 30.416 11.56 30.128 12.008 29.552C12.4773 28.976 12.808 28.112 13 26.96C13.2133 25.7867 13.32 24.3253 13.32 22.576C13.32 20.8267 13.2133 19.376 13 18.224C12.808 17.0507 12.4773 16.176 12.008 15.6C11.56 15.0027 10.9307 14.704 10.12 14.704C9.30933 14.704 8.66933 15.0027 8.2 15.6C7.752 16.176 7.432 17.0507 7.24 18.224C7.048 19.376 6.952 20.8267 6.952 22.576ZM28.4645 10.864C29.7872 10.864 30.9925 11.0667 32.0805 11.472C33.1898 11.8773 34.0752 12.4853 34.7365 13.296C35.4192 14.1067 35.7605 15.1307 35.7605 16.368C35.7605 17.2853 35.5792 18.096 35.2165 18.8C34.8538 19.4827 34.3632 20.08 33.7445 20.592C33.1472 21.104 32.4538 21.552 31.6645 21.936C32.4752 22.3627 33.2432 22.864 33.9685 23.44C34.7152 23.9947 35.3125 24.656 35.7605 25.424C36.2298 26.1707 36.4645 27.056 36.4645 28.08C36.4645 29.3387 36.1232 30.4373 35.4405 31.376C34.7792 32.3147 33.8405 33.04 32.6245 33.552C31.4298 34.064 30.0432 34.32 28.4645 34.32C26.7578 34.32 25.3072 34.0747 24.1125 33.584C22.9178 33.0933 22.0005 32.3893 21.3605 31.472C20.7418 30.5547 20.4325 29.4667 20.4325 28.208C20.4325 27.1627 20.6245 26.256 21.0085 25.488C21.4138 24.72 21.9472 24.0587 22.6085 23.504C23.2698 22.928 24.0058 22.448 24.8165 22.064C24.1338 21.6373 23.5152 21.1573 22.9605 20.624C22.4058 20.0693 21.9578 19.4507 21.6165 18.768C21.2965 18.064 21.1365 17.2533 21.1365 16.336C21.1365 15.12 21.4778 14.1067 22.1605 13.296C22.8432 12.4853 23.7392 11.8773 24.8485 11.472C25.9792 11.0667 27.1845 10.864 28.4645 10.864ZM24.9125 27.92C24.9125 28.752 25.2005 29.4347 25.7765 29.968C26.3738 30.5013 27.2485 30.768 28.4005 30.768C29.2112 30.768 29.8725 30.6507 30.3845 30.416C30.9178 30.1813 31.3125 29.8507 31.5685 29.424C31.8458 28.9973 31.9845 28.5067 31.9845 27.952C31.9845 27.376 31.8138 26.8747 31.4725 26.448C31.1312 26 30.7045 25.6053 30.1925 25.264C29.7018 24.9013 29.1898 24.5707 28.6565 24.272L28.2405 24.048C27.5792 24.3467 26.9925 24.688 26.4805 25.072C25.9898 25.456 25.6058 25.8827 25.3285 26.352C25.0512 26.8 24.9125 27.3227 24.9125 27.92ZM28.4325 14.384C27.6432 14.384 26.9818 14.5867 26.4485 14.992C25.9365 15.3973 25.6805 15.9733 25.6805 16.72C25.6805 17.232 25.8085 17.6907 26.0645 18.096C26.3205 18.48 26.6618 18.8213 27.0885 19.12C27.5152 19.3973 27.9738 19.664 28.4645 19.92C28.9552 19.6853 29.4032 19.4293 29.8085 19.152C30.2352 18.8747 30.5765 18.544 30.8325 18.16C31.0885 17.7547 31.2165 17.2747 31.2165 16.72C31.2165 15.9733 30.9498 15.3973 30.4165 14.992C29.9045 14.5867 29.2432 14.384 28.4325 14.384ZM59.6825 70.576C59.6825 72.4107 59.5332 74.0533 59.2345 75.504C58.9572 76.9547 58.4985 78.192 57.8585 79.216C57.2398 80.2187 56.4185 80.9867 55.3945 81.52C54.3918 82.0533 53.1545 82.32 51.6825 82.32C49.8478 82.32 48.3438 81.8507 47.1705 80.912C45.9972 79.9733 45.1225 78.6293 44.5465 76.88C43.9918 75.1307 43.7145 73.0293 43.7145 70.576C43.7145 68.1013 43.9705 65.9893 44.4825 64.24C44.9945 62.4907 45.8372 61.1467 47.0105 60.208C48.1838 59.2693 49.7412 58.8 51.6825 58.8C53.5172 58.8 55.0212 59.2693 56.1945 60.208C57.3678 61.1253 58.2425 62.4693 58.8185 64.24C59.3945 65.9893 59.6825 68.1013 59.6825 70.576ZM48.5145 70.576C48.5145 72.304 48.6105 73.7547 48.8025 74.928C48.9945 76.08 49.3145 76.9547 49.7625 77.552C50.2318 78.128 50.8718 78.416 51.6825 78.416C52.4932 78.416 53.1225 78.128 53.5705 77.552C54.0398 76.976 54.3705 76.112 54.5625 74.96C54.7758 73.7867 54.8825 72.3253 54.8825 70.576C54.8825 68.8267 54.7758 67.376 54.5625 66.224C54.3705 65.0507 54.0398 64.176 53.5705 63.6C53.1225 63.0027 52.4932 62.704 51.6825 62.704C50.8718 62.704 50.2318 63.0027 49.7625 63.6C49.3145 64.176 48.9945 65.0507 48.8025 66.224C48.6105 67.376 48.5145 68.8267 48.5145 70.576ZM77.227 64.272C77.227 65.3173 77.003 66.224 76.555 66.992C76.1283 67.76 75.5417 68.3893 74.795 68.88C74.0697 69.3707 73.2377 69.7333 72.299 69.968V70.064C74.1337 70.2773 75.5203 70.832 76.459 71.728C77.419 72.624 77.899 73.8293 77.899 75.344C77.899 76.6667 77.5683 77.8613 76.907 78.928C76.267 79.9733 75.2643 80.8053 73.899 81.424C72.555 82.0213 70.8163 82.32 68.683 82.32C67.4243 82.32 66.251 82.2133 65.163 82C64.075 81.7867 63.051 81.4773 62.091 81.072V76.976C63.0723 77.4667 64.0963 77.84 65.163 78.096C66.251 78.352 67.2537 78.48 68.171 78.48C69.899 78.48 71.1043 78.1813 71.787 77.584C72.491 76.9867 72.843 76.144 72.843 75.056C72.843 74.416 72.683 73.8827 72.363 73.456C72.043 73.008 71.4777 72.6773 70.667 72.464C69.8777 72.2293 68.7683 72.112 67.339 72.112H65.611V68.4H67.371C68.779 68.4 69.8457 68.272 70.571 68.016C71.3177 67.7387 71.819 67.376 72.075 66.928C72.3523 66.4587 72.491 65.9253 72.491 65.328C72.491 64.5173 72.235 63.888 71.723 63.44C71.2323 62.9707 70.4003 62.736 69.227 62.736C68.5017 62.736 67.8403 62.832 67.243 63.024C66.6457 63.1947 66.1017 63.408 65.611 63.664C65.1417 63.92 64.7257 64.1653 64.363 64.4L62.123 61.072C62.7203 60.6453 63.3817 60.2613 64.107 59.92C64.8537 59.5787 65.675 59.312 66.571 59.12C67.467 58.928 68.4697 58.832 69.579 58.832C71.9257 58.832 73.7817 59.312 75.147 60.272C76.5337 61.2107 77.227 62.544 77.227 64.272Z" fill="#A9EEFD"/>
<line x1="76.8041" y1="7.82163" x2="2.82163" y2="72.1959" stroke="#A9EEFD" stroke-width="4" stroke-linecap="round"/>
</svg>
