<svg width="157" height="55" viewBox="0 0 157 55" fill="none" xmlns="http://www.w3.org/2000/svg">
<rect x="1" y="1" width="155" height="53" rx="26.5" stroke="url(#paint0_linear_1516_1623)"/>
<g filter="url(#filter0_d_1516_1623)">
<path d="M55.0096 23.1201C54.4876 22.2741 53.2996 21.0861 52.3456 20.2581L50.7256 21.3561C51.6976 22.2201 52.8136 23.4981 53.2816 24.3261L55.0096 23.1201ZM52.7056 27.4761C52.2376 28.3401 51.6436 29.1501 50.9956 29.9241C50.7976 29.0061 50.6176 27.9621 50.4736 26.8821H55.1536V24.8481H50.2576C50.1136 23.2641 50.0416 21.5901 50.0776 19.9161H47.8276C47.8456 21.5541 47.8996 23.2281 48.0436 24.8481H44.5876V22.4181C45.6316 22.2021 46.6216 21.9681 47.5216 21.6981L46.0816 19.8801C44.2456 20.4741 41.4556 21.0501 38.9356 21.3921C39.1696 21.8781 39.4576 22.6701 39.5476 23.1921C40.4656 23.0841 41.4556 22.9581 42.4276 22.7961V24.8481H39.0256V26.8821H42.4276V29.2941C41.0056 29.5461 39.7096 29.7441 38.6836 29.9061L39.2056 32.0661C40.1596 31.8861 41.2756 31.6521 42.4276 31.4181V34.0281C42.4276 34.3161 42.3196 34.4061 41.9956 34.4061C41.6716 34.4241 40.6276 34.4421 39.6196 34.3881C39.9256 34.9821 40.2856 35.9541 40.3756 36.5481C41.8336 36.5661 42.9136 36.4761 43.6156 36.1341C44.3356 35.7921 44.5876 35.2161 44.5876 34.0461V30.9681L47.5216 30.3741L47.3596 28.4301C46.4416 28.5921 45.5056 28.7721 44.5876 28.9341V26.8821H48.2416C48.4576 28.6461 48.7636 30.2841 49.1596 31.7061C47.9176 32.7321 46.5316 33.6141 45.1456 34.2441C45.6676 34.7301 46.2616 35.4681 46.5676 35.9721C47.7196 35.3781 48.8536 34.6401 49.8976 33.7761C50.6716 35.5401 51.6796 36.6201 52.9936 36.6201C54.6316 36.6201 55.2976 35.8281 55.6396 32.6781C55.0636 32.4441 54.3436 31.9581 53.8756 31.4541C53.7856 33.5781 53.5696 34.4421 53.1916 34.4421C52.6516 34.4421 52.0936 33.6141 51.6076 32.2281C52.7776 31.0581 53.7856 29.7441 54.5956 28.2861L52.7056 27.4761Z" fill="white"/>
<path d="M67.0516 31.7061C66.6016 32.2461 66.0436 32.6601 65.4316 33.0381C64.3876 32.8041 63.3076 32.5881 62.2456 32.3901C62.4076 32.1741 62.5876 31.9401 62.7496 31.7061H67.0516ZM59.9956 24.9561H61.8856V26.6301H59.9956V24.9561ZM63.9016 22.2381H65.9356V23.2641H63.9016V22.2381ZM70.1116 24.9561V26.6301H67.9516V24.9561H70.1116ZM63.9016 26.6301V24.9561H65.9356V26.6301H63.9016ZM73.1896 31.7061V29.9421H70.4896C70.5436 29.7801 70.6156 29.6181 70.6696 29.4381L68.5996 28.9341C68.4736 29.2761 68.3476 29.6181 68.2036 29.9421H63.8656C64.0996 29.5281 64.3156 29.1321 64.4956 28.7361L62.6056 28.3041H72.2536V23.2641H67.9516V22.2381H72.8296V20.3841H57.1516V22.2381H61.8856V23.2641H57.9976V28.3041H62.3536C62.1016 28.8261 61.7956 29.3841 61.4536 29.9421H56.8816V31.7061H60.3016C59.8336 32.3541 59.3656 32.9301 58.9336 33.4341C60.1396 33.6501 61.3096 33.8841 62.4616 34.1181C60.9316 34.4781 59.0596 34.6581 56.8636 34.7481C57.1876 35.2341 57.5116 35.9721 57.6556 36.6021C61.1476 36.3501 63.8656 35.9001 65.9176 34.9461C67.9696 35.4861 69.7516 36.0081 71.0836 36.5121L73.0096 35.0001C71.6416 34.5681 69.9136 34.0821 68.0056 33.6321C68.6356 33.0921 69.1576 32.4621 69.6256 31.7061H73.1896Z" fill="white"/>
<path d="M77.3116 28.2501L78.1216 27.9801C78.0316 27.4941 77.7256 26.7741 77.4196 26.1621H80.1736C79.9576 26.8101 79.6336 27.5841 79.3096 28.2501H77.3116ZM79.8136 23.1201H82.2796V21.3561H79.8136V19.8081H77.8336V21.3561H75.2236V23.1201H77.8336V24.3621H74.7376V26.1621H76.8076L75.7996 26.4681C76.0336 27.0261 76.3036 27.7101 76.4296 28.2501H75.1516V30.0501H77.8336V31.4901H74.7196V33.2901H77.8336V36.4941H79.8136V33.2901H82.6936V31.4901H79.8136V30.0501H82.3336V28.2501H81.0916C81.3796 27.6741 81.7036 27.0621 82.0096 26.4321L80.9296 26.1621H82.6936V24.3621H79.8136V23.1201ZM85.1236 29.1861C85.5736 30.5361 86.1136 31.7961 86.7976 32.8941C86.3116 33.5781 85.7716 34.1901 85.1236 34.7121V29.1861ZM88.7956 28.3761C88.5616 29.3121 88.2556 30.2301 87.8596 31.0581C87.3556 30.2301 86.9416 29.3121 86.6176 28.3761H88.7956ZM89.7496 26.5941L89.4076 26.6841H85.1236V22.3821H88.6336V23.8581C88.6336 24.0561 88.5436 24.1101 88.2736 24.1281C88.0036 24.1281 87.0136 24.1281 86.1316 24.0921C86.3836 24.6141 86.6536 25.3521 86.7436 25.9281C88.0576 25.9281 89.0296 25.9101 89.7136 25.6221C90.4156 25.3341 90.6136 24.8121 90.6136 23.8941V20.5101H83.1796V36.5301H85.1236V35.6301C85.4476 35.9541 85.7716 36.2961 85.9696 36.6021C86.7436 36.0261 87.4276 35.3601 88.0216 34.5681C88.6876 35.3241 89.4256 35.9541 90.2356 36.4401C90.5596 35.9181 91.1896 35.1441 91.6396 34.7481C90.7216 34.2801 89.8936 33.6321 89.1736 32.8221C90.0736 31.1481 90.7036 29.1861 91.0456 27.0621L89.7496 26.5941Z" fill="white"/>
<path d="M98.4256 33.8481V30.4461H105.176V33.8481H98.4256ZM104.132 23.4621C103.25 24.6141 102.098 25.6401 100.766 26.5041C99.9736 25.7481 98.7316 24.7761 97.6876 24.0201C97.9216 23.8401 98.1376 23.6601 98.3716 23.4621H104.132ZM107.39 28.5021H101.576C104.06 26.9361 106.112 24.8841 107.354 22.2921L105.878 21.4101L105.518 21.5181H100.262C100.622 21.0681 100.946 20.6181 101.27 20.1681L98.8756 19.6641C97.7776 21.3561 95.7976 23.1561 92.8636 24.4341C93.3496 24.8121 94.0156 25.6221 94.3396 26.1441C94.9156 25.8741 95.4556 25.5501 95.9596 25.2261C96.9316 25.9821 98.0116 26.9001 98.7856 27.6561C96.8596 28.6101 94.6996 29.3301 92.5216 29.7621C92.9176 30.2481 93.4216 31.1661 93.6196 31.7421C94.5196 31.5261 95.4016 31.2921 96.2836 30.9861V36.5661H98.4256V35.7741H105.176V36.5661H107.39V28.5021Z" fill="white"/>
<path d="M118.01 30.3741H119.864L120.494 24.2181L120.584 21.5361H117.29L117.362 24.2181L118.01 30.3741ZM118.928 35.1621C119.99 35.1621 120.8 34.4421 120.8 33.3981C120.8 32.3721 119.99 31.6161 118.928 31.6161C117.866 31.6161 117.056 32.3721 117.056 33.3981C117.056 34.4421 117.866 35.1621 118.928 35.1621Z" fill="white"/>
</g>
<defs>
<filter id="filter0_d_1516_1623" x="23.6836" y="7.66406" width="102.117" height="36.9561" filterUnits="userSpaceOnUse" color-interpolation-filters="sRGB">
<feFlood flood-opacity="0" result="BackgroundImageFix"/>
<feColorMatrix in="SourceAlpha" type="matrix" values="0 0 0 0 0 0 0 0 0 0 0 0 0 0 0 0 0 0 127 0" result="hardAlpha"/>
<feOffset dx="-5" dy="-2"/>
<feGaussianBlur stdDeviation="5"/>
<feComposite in2="hardAlpha" operator="out"/>
<feColorMatrix type="matrix" values="0 0 0 0 0.345833 0 0 0 0 0.322778 0 0 0 0 0.322778 0 0 0 0.4 0"/>
<feBlend mode="normal" in2="BackgroundImageFix" result="effect1_dropShadow_1516_1623"/>
<feBlend mode="normal" in="SourceGraphic" in2="effect1_dropShadow_1516_1623" result="shape"/>
</filter>
<linearGradient id="paint0_linear_1516_1623" x1="169.067" y1="49.9576" x2="10.5506" y2="0.715467" gradientUnits="userSpaceOnUse">
<stop offset="0.130208" stop-color="#E6E2E2"/>
<stop offset="0.3125" stop-color="white"/>
<stop offset="0.505208" stop-color="#EEEBEB"/>
<stop offset="0.692708" stop-color="white"/>
<stop offset="0.890625" stop-color="#DCD7D7"/>
</linearGradient>
</defs>
</svg>
