<svg width="1203" height="329" viewBox="0 0 1203 329" fill="none" xmlns="http://www.w3.org/2000/svg">
<g filter="url(#filter0_i_1287_1460)">
<path d="M57.9199 4.11133L45.8525 49.8259L40.0285 49.8349L31.0718 19.8967C30.814 19.0011 30.5561 18.0842 30.2982 17.1459C30.0403 16.2076 29.8039 15.312 29.5888 14.459C29.3737 13.606 29.1803 12.881 29.0084 12.2839C28.8791 11.6441 28.7928 11.1749 28.7495 10.8763C28.7075 11.175 28.6231 11.6445 28.4964 12.2847C28.4123 12.8821 28.2644 13.6077 28.0528 14.4614C27.8412 15.315 27.6084 16.2327 27.3544 17.2144C27.1429 18.1534 26.8889 19.1138 26.5922 20.0956L18.0125 49.8689L12.1885 49.8779L0 4.20063L6.01604 4.19143L13.1765 32.0843C13.4344 33.0653 13.6711 34.0462 13.8864 35.0272C14.1017 35.9656 14.2956 36.904 14.4681 37.8424C14.6833 38.738 14.8557 39.6124 14.9854 40.4656C15.1152 41.3187 15.2449 42.1505 15.3745 42.961C15.5008 42.1074 15.627 41.2326 15.7532 40.3364C15.922 39.4401 16.1122 38.5225 16.3236 37.5835C16.535 36.6018 16.7676 35.6201 17.0216 34.6384C17.2757 33.6567 17.5297 32.6963 17.7838 31.7572L25.7919 4.16083L31.7439 4.15173L40.1842 31.9147C40.4848 32.8955 40.7642 33.8978 41.0223 34.9214C41.2803 35.9023 41.5169 36.8619 41.7321 37.8003C41.9473 38.7386 42.1199 39.6557 42.2497 40.5515C42.4221 41.4045 42.573 42.1937 42.7025 42.9188C42.8283 41.8519 42.9967 40.7423 43.2077 39.59C43.4186 38.395 43.6721 37.1573 43.9682 35.8768C44.2643 34.5964 44.5816 33.2945 44.9203 31.9713L51.9039 4.12053L57.9199 4.11133Z" fill="white"/>
<path d="M108.711 26.817C108.718 30.3583 108.277 33.5803 107.387 36.483C106.496 39.3431 105.157 41.8198 103.37 43.9133C101.625 46.0066 99.4313 47.61 96.7873 48.7234C94.1873 49.8368 91.159 50.3961 87.703 50.4014C84.119 50.407 81.0032 49.8571 78.3556 48.7519C75.708 47.604 73.5074 46.0073 71.7539 43.962C70.0004 41.8741 68.6941 39.3801 67.8349 36.4801C66.9757 33.5801 66.5424 30.3594 66.5352 26.8181C66.5257 22.1248 67.2855 18.0276 68.8144 14.5266C70.3433 11.0255 72.663 8.29127 75.7737 6.32377C78.9271 4.35627 82.8931 3.36877 87.6717 3.36137C92.2371 3.35437 96.0792 4.32977 99.1972 6.28767C102.316 8.20277 104.668 10.9299 106.254 14.4688C107.882 17.9649 108.701 22.081 108.711 26.817ZM72.6153 26.8727C72.6231 30.7127 73.1631 34.0185 74.2354 36.7902C75.3077 39.5619 76.9547 41.6927 79.1764 43.1826C81.4407 44.6724 84.2797 45.4147 87.693 45.4095C91.149 45.4041 93.9634 44.6531 96.1362 43.1564C98.3522 41.6597 99.9902 39.5238 101.051 36.7488C102.112 33.9739 102.639 30.6664 102.631 26.8264C102.619 21.0664 101.416 16.5669 99.0202 13.3279C96.6242 10.0463 92.8446 8.40946 87.682 8.41737C84.226 8.42277 81.3688 9.17376 79.1105 10.6707C76.8948 12.1247 75.2564 14.2393 74.1954 17.0143C73.1342 19.7466 72.6075 23.0327 72.6153 26.8727Z" fill="white"/>
<path d="M135.881 3.99126C139.678 3.98546 142.794 4.47126 145.228 5.44886C147.704 6.38376 149.542 7.81026 150.741 9.72836C151.939 11.6466 152.541 14.0563 152.547 16.9576C152.552 19.3896 152.108 21.417 151.216 23.0397C150.323 24.6624 149.173 25.9655 147.767 26.949C146.404 27.8898 144.955 28.6387 143.42 29.1957L156.005 49.6563L149.285 49.6667L138.175 30.8038L129.087 30.8179L129.125 49.6978L123.365 49.7067L123.273 4.01076L135.881 3.99126ZM135.571 8.98376L129.043 8.99386L129.077 25.9539L135.925 25.9433C138.4 25.9395 140.426 25.6163 142.003 24.9739C143.581 24.2888 144.731 23.3057 145.453 22.0246C146.219 20.7434 146.6 19.1428 146.596 17.2228C146.592 15.2175 146.183 13.6181 145.37 12.4247C144.6 11.2312 143.403 10.3584 141.781 9.80616C140.158 9.25406 138.088 8.97986 135.571 8.98376Z" fill="white"/>
<path d="M201.067 49.5864L194.283 49.5969L178.047 27.7979L173.383 31.9011L173.419 49.6291L167.659 49.6379L167.566 3.942L173.326 3.9331L173.372 26.4611C174.649 25.0085 175.947 23.5558 177.267 22.1031C178.587 20.6504 179.907 19.1977 181.226 17.745L193.55 3.9019L200.27 3.8916L182.199 23.8235L201.067 49.5864Z" fill="white"/>
<path d="M237.662 37.3067C237.668 40.0374 237.011 42.3637 235.692 44.2858C234.373 46.1651 232.478 47.6187 230.005 48.6465C227.575 49.6743 224.696 50.1907 221.368 50.1959C219.661 50.1985 218.019 50.1157 216.44 49.9475C214.903 49.7792 213.495 49.5467 212.214 49.25C210.934 48.9106 209.802 48.507 208.82 48.0392L208.809 42.5352C210.346 43.2155 212.246 43.8313 214.508 44.3824C216.813 44.9336 219.182 45.2072 221.614 45.2035C223.875 45.2 225.773 44.8984 227.308 44.2987C228.843 43.699 229.993 42.8439 230.759 41.7334C231.525 40.6228 231.906 39.3209 231.903 37.8276C231.9 36.3343 231.578 35.0761 230.935 34.0531C230.293 33.0301 229.182 32.0931 227.602 31.2422C226.064 30.3486 223.907 29.4133 221.132 28.4362C219.168 27.7139 217.438 26.9486 215.943 26.1402C214.491 25.2891 213.273 24.331 212.29 23.2658C211.306 22.2007 210.557 20.9859 210.042 19.6213C209.57 18.2567 209.332 16.6784 209.329 14.8864C209.324 12.4544 209.938 10.3841 211.172 8.67557C212.406 6.92427 214.11 5.57767 216.284 4.63567C218.501 3.69357 221.038 3.22027 223.897 3.21587C226.414 3.21197 228.719 3.44307 230.81 3.90917C232.902 4.37527 234.802 4.99107 236.51 5.75637L234.728 10.6872C233.148 10.007 231.419 9.43357 229.541 8.96717C227.705 8.50067 225.785 8.26897 223.779 8.27207C221.859 8.27507 220.26 8.55487 218.981 9.11147C217.702 9.66807 216.744 10.459 216.106 11.4839C215.468 12.4663 215.15 13.6188 215.153 14.9414C215.156 16.4774 215.478 17.7569 216.121 18.7799C216.763 19.8029 217.81 20.7187 219.262 21.5271C220.714 22.3355 222.679 23.2071 225.155 24.142C227.845 25.1192 230.109 26.1823 231.946 27.3315C233.825 28.4379 235.236 29.7798 236.178 31.357C237.163 32.9341 237.657 34.9174 237.662 37.3067Z" fill="white"/>
<path d="M286.314 49.4557L280.554 49.4646L280.511 28.1527L257.087 28.1888L257.13 49.5008L251.37 49.5097L251.277 3.81367L257.037 3.80486L257.076 23.1328L280.5 23.0967L280.461 3.76867L286.221 3.75977L286.314 49.4557Z" fill="white"/>
<path d="M343.114 26.4555C343.121 29.9969 342.68 33.2189 341.789 36.1216C340.899 38.9816 339.56 41.4584 337.772 43.5518C336.027 45.6452 333.833 47.2486 331.19 48.362C328.59 49.4753 325.562 50.0347 322.106 50.04C318.522 50.0455 315.406 49.4957 312.758 48.3904C310.111 47.2425 307.91 45.6459 306.156 43.6006C304.403 41.5126 303.097 39.0187 302.237 36.1186C301.378 33.2186 300.945 29.998 300.938 26.4566C300.928 21.7633 301.688 17.6661 303.217 14.1651C304.746 10.6641 307.066 7.92984 310.176 5.96244C313.33 3.99484 317.296 3.00744 322.074 3.00004C326.64 2.99294 330.482 3.96844 333.6 5.92624C336.719 7.84144 339.071 10.5684 340.657 14.1073C342.285 17.6035 343.104 21.7196 343.114 26.4555ZM307.018 26.5113C307.026 30.3512 307.566 33.6571 308.638 36.4288C309.71 39.2004 311.357 41.3312 313.579 42.8211C315.843 44.311 318.682 45.0533 322.095 45.048C325.551 45.0427 328.366 44.2917 330.539 42.795C332.755 41.2982 334.393 39.1624 335.454 36.3874C336.515 33.6124 337.042 30.3049 337.034 26.4649C337.022 20.7049 335.818 16.2055 333.422 12.9665C331.026 9.68484 327.247 8.04804 322.084 8.05604C318.629 8.06134 315.771 8.81244 313.513 10.3092C311.297 11.7633 309.659 13.8778 308.598 16.6528C307.537 19.3851 307.01 22.6713 307.018 26.5113Z" fill="white"/>
<path d="M369.772 3.63091C375.745 3.62171 380.099 4.78831 382.835 7.13071C385.57 9.47321 386.942 12.7777 386.951 17.0444C386.955 18.9217 386.638 20.7355 386.002 22.4859C385.408 24.1934 384.408 25.731 383.003 27.0985C381.598 28.466 379.723 29.5569 377.378 30.3712C375.033 31.1428 372.153 31.5312 368.74 31.5365L363.492 31.5446L363.528 49.3366L357.768 49.3455L357.676 3.64951L369.772 3.63091ZM369.27 8.55971L363.446 8.56861L363.482 26.6166L368.09 26.6095C370.991 26.605 373.402 26.3026 375.32 25.7023C377.239 25.0594 378.666 24.0545 379.602 22.6877C380.538 21.321 381.004 19.5282 380.999 17.3096C380.993 14.3656 380.05 12.1697 378.17 10.7219C376.29 9.27421 373.323 8.55341 369.27 8.55971Z" fill="white"/>
<path d="M349.448 144.676C352.136 144.676 354.504 145.103 356.552 145.956C358.6 146.767 360.2 147.983 361.352 149.604C362.547 151.226 363.144 153.231 363.144 155.62C363.144 157.455 362.739 159.055 361.928 160.42C361.16 161.786 360.115 163.002 358.792 164.068C357.47 165.092 356.019 166.01 354.44 166.82C356.317 167.716 358.024 168.74 359.56 169.892C361.096 171.002 362.312 172.303 363.208 173.796C364.147 175.29 364.616 177.082 364.616 179.172C364.616 181.732 363.998 183.951 362.76 185.828C361.523 187.663 359.774 189.092 357.512 190.116C355.294 191.14 352.67 191.652 349.64 191.652C346.355 191.652 343.56 191.162 341.256 190.18C338.995 189.199 337.267 187.812 336.072 186.02C334.92 184.186 334.344 181.967 334.344 179.364C334.344 177.274 334.771 175.46 335.624 173.924C336.52 172.388 337.694 171.066 339.144 169.956C340.595 168.847 342.152 167.908 343.816 167.14C342.323 166.287 340.957 165.327 339.72 164.26C338.525 163.151 337.565 161.892 336.84 160.484C336.157 159.076 335.816 157.434 335.816 155.556C335.816 153.21 336.413 151.247 337.608 149.668C338.803 148.047 340.424 146.81 342.472 145.956C344.52 145.103 346.845 144.676 349.448 144.676ZM339.848 179.428C339.848 181.647 340.637 183.503 342.216 184.996C343.795 186.447 346.227 187.172 349.512 187.172C351.603 187.172 353.352 186.831 354.76 186.148C356.168 185.466 357.235 184.527 357.96 183.332C358.728 182.138 359.112 180.772 359.112 179.236C359.112 177.743 358.707 176.442 357.896 175.332C357.128 174.18 356.019 173.156 354.568 172.26C353.16 171.364 351.475 170.554 349.512 169.828L348.488 169.444C346.611 170.255 345.032 171.13 343.752 172.068C342.472 173.007 341.491 174.074 340.808 175.268C340.168 176.463 339.848 177.85 339.848 179.428ZM349.384 149.22C347.037 149.22 345.096 149.796 343.56 150.948C342.067 152.058 341.32 153.679 341.32 155.812C341.32 157.391 341.683 158.714 342.408 159.78C343.176 160.847 344.2 161.764 345.48 162.532C346.76 163.258 348.168 163.962 349.704 164.644C351.198 164.004 352.52 163.3 353.672 162.532C354.867 161.764 355.806 160.847 356.488 159.78C357.214 158.671 357.576 157.348 357.576 155.812C357.576 153.679 356.829 152.058 355.336 150.948C353.843 149.796 351.859 149.22 349.384 149.22Z" fill="white"/>
<path d="M376.922 187.556C376.922 185.978 377.306 184.868 378.074 184.228C378.842 183.588 379.76 183.268 380.826 183.268C381.936 183.268 382.874 183.588 383.642 184.228C384.453 184.868 384.858 185.978 384.858 187.556C384.858 189.092 384.453 190.202 383.642 190.884C382.874 191.567 381.936 191.908 380.826 191.908C379.76 191.908 378.842 191.567 378.074 190.884C377.306 190.202 376.922 189.092 376.922 187.556Z" fill="white"/>
<path d="M416.637 191.011H411.133V159.075C411.133 157.838 411.133 156.793 411.133 155.939C411.176 155.086 411.219 154.297 411.261 153.571C411.304 152.803 411.347 152.014 411.389 151.203C410.707 151.886 410.088 152.462 409.533 152.931C408.978 153.401 408.274 153.998 407.421 154.723L402.557 158.691L399.613 154.915L411.965 145.315H416.637V191.011Z" fill="white"/>
<path d="M470.351 180.644H463.695V191.012H458.255V180.644H436.367V175.844L457.871 145.06H463.695V175.588H470.351V180.644ZM458.255 161.188C458.255 160.079 458.255 159.076 458.255 158.18C458.298 157.242 458.341 156.367 458.383 155.556C458.426 154.746 458.447 153.978 458.447 153.252C458.49 152.484 458.533 151.759 458.575 151.076H458.319C457.978 151.887 457.551 152.762 457.039 153.7C456.527 154.639 456.037 155.428 455.567 156.068L441.871 175.588H458.255V161.188Z" fill="white"/>
<path d="M17.4478 144.676C20.1358 144.676 22.5038 145.103 24.5518 145.956C26.5998 146.767 28.1998 147.983 29.3518 149.604C30.5464 151.226 31.1438 153.231 31.1438 155.62C31.1438 157.455 30.7384 159.055 29.9278 160.42C29.1598 161.786 28.1144 163.002 26.7918 164.068C25.4691 165.092 24.0184 166.01 22.4398 166.82C24.3171 167.716 26.0238 168.74 27.5598 169.892C29.0958 171.002 30.3118 172.303 31.2078 173.796C32.1464 175.29 32.6158 177.082 32.6158 179.172C32.6158 181.732 31.9971 183.951 30.7598 185.828C29.5224 187.663 27.7731 189.092 25.5118 190.116C23.2931 191.14 20.6691 191.652 17.6398 191.652C14.3544 191.652 11.5598 191.162 9.25578 190.18C6.99438 189.199 5.26638 187.812 4.07175 186.02C2.91975 184.186 2.34375 181.967 2.34375 179.364C2.34375 177.274 2.77042 175.46 3.62375 173.924C4.51975 172.388 5.69308 171.066 7.14378 169.956C8.59438 168.847 10.1518 167.908 11.8158 167.14C10.3224 166.287 8.95708 165.327 7.71978 164.26C6.52508 163.151 5.56508 161.892 4.83975 160.484C4.15708 159.076 3.81575 157.434 3.81575 155.556C3.81575 153.21 4.41308 151.247 5.60778 149.668C6.80238 148.047 8.42378 146.81 10.4718 145.956C12.5198 145.103 14.8451 144.676 17.4478 144.676ZM7.84778 179.428C7.84778 181.647 8.63708 183.503 10.2158 184.996C11.7944 186.447 14.2264 187.172 17.5118 187.172C19.6024 187.172 21.3518 186.831 22.7598 186.148C24.1678 185.466 25.2344 184.527 25.9598 183.332C26.7278 182.138 27.1118 180.772 27.1118 179.236C27.1118 177.743 26.7064 176.442 25.8958 175.332C25.1278 174.18 24.0184 173.156 22.5678 172.26C21.1598 171.364 19.4744 170.554 17.5118 169.828L16.4878 169.444C14.6104 170.255 13.0318 171.13 11.7518 172.068C10.4718 173.007 9.49038 174.074 8.80778 175.268C8.16778 176.463 7.84778 177.85 7.84778 179.428ZM17.3838 149.22C15.0371 149.22 13.0958 149.796 11.5598 150.948C10.0664 152.058 9.31978 153.679 9.31978 155.812C9.31978 157.391 9.68238 158.714 10.4078 159.78C11.1758 160.847 12.1998 161.764 13.4798 162.532C14.7598 163.258 16.1678 163.962 17.7038 164.644C19.1971 164.004 20.5198 163.3 21.6718 162.532C22.8664 161.764 23.8051 160.847 24.4878 159.78C25.2131 158.671 25.5758 157.348 25.5758 155.812C25.5758 153.679 24.8291 152.058 23.3358 150.948C21.8424 149.796 19.8584 149.22 17.3838 149.22Z" fill="white"/>
<path d="M44.9219 187.556C44.9219 185.978 45.3059 184.868 46.0739 184.228C46.8419 183.588 47.7592 183.268 48.8259 183.268C49.9352 183.268 50.8739 183.588 51.6419 184.228C52.4525 184.868 52.8579 185.978 52.8579 187.556C52.8579 189.092 52.4525 190.202 51.6419 190.884C50.8739 191.567 49.9352 191.908 48.8259 191.908C47.7592 191.908 46.8419 191.567 46.0739 190.884C45.3059 190.202 44.9219 189.092 44.9219 187.556Z" fill="white"/>
<path d="M84.6373 191.011H79.1333V159.075C79.1333 157.838 79.1333 156.793 79.1333 155.939C79.1759 155.086 79.2186 154.297 79.2613 153.571C79.3039 152.803 79.3466 152.014 79.3893 151.203C78.7066 151.886 78.0879 152.462 77.5333 152.931C76.9786 153.401 76.2746 153.998 75.4213 154.723L70.5573 158.691L67.6133 154.915L79.9653 145.315H84.6373V191.011Z" fill="white"/>
<path d="M134.574 156.004C134.574 158.052 134.19 159.823 133.422 161.316C132.654 162.81 131.545 164.026 130.094 164.964C128.686 165.903 127.022 166.564 125.102 166.948V167.204C128.772 167.631 131.502 168.783 133.294 170.66C135.086 172.538 135.982 174.991 135.982 178.02C135.982 180.666 135.364 183.034 134.126 185.124C132.889 187.172 130.969 188.772 128.366 189.924C125.806 191.076 122.5 191.652 118.446 191.652C116.057 191.652 113.838 191.46 111.79 191.076C109.742 190.735 107.78 190.095 105.902 189.156V183.908C107.822 184.847 109.892 185.594 112.11 186.148C114.329 186.66 116.462 186.916 118.51 186.916C122.606 186.916 125.55 186.127 127.342 184.548C129.177 182.927 130.094 180.708 130.094 177.892C130.094 175.972 129.582 174.436 128.558 173.284C127.577 172.09 126.126 171.215 124.206 170.66C122.286 170.106 119.982 169.828 117.294 169.828H112.878V165.028H117.358C119.876 165.028 121.966 164.666 123.63 163.94C125.337 163.215 126.617 162.212 127.47 160.932C128.366 159.61 128.814 158.095 128.814 156.388C128.814 154.17 128.068 152.463 126.574 151.268C125.081 150.031 123.054 149.412 120.494 149.412C118.873 149.412 117.401 149.583 116.078 149.924C114.756 150.223 113.518 150.671 112.366 151.268C111.257 151.823 110.126 152.484 108.974 153.252L106.158 149.412C107.268 148.559 108.526 147.77 109.934 147.044C111.385 146.319 112.985 145.743 114.734 145.316C116.484 144.89 118.382 144.676 120.43 144.676C125.209 144.676 128.75 145.743 131.054 147.876C133.401 150.01 134.574 152.719 134.574 156.004Z" fill="white"/>
<path d="M17.4478 248.518C20.1358 248.518 22.5038 248.945 24.5518 249.798C26.5998 250.609 28.1998 251.825 29.3518 253.446C30.5464 255.068 31.1438 257.073 31.1438 259.462C31.1438 261.297 30.7384 262.897 29.9278 264.262C29.1598 265.628 28.1144 266.844 26.7918 267.91C25.4691 268.934 24.0184 269.852 22.4398 270.662C24.3171 271.558 26.0238 272.582 27.5598 273.734C29.0958 274.844 30.3118 276.145 31.2078 277.638C32.1464 279.132 32.6158 280.924 32.6158 283.014C32.6158 285.574 31.9971 287.793 30.7598 289.67C29.5224 291.505 27.7731 292.934 25.5118 293.958C23.2931 294.982 20.6691 295.494 17.6398 295.494C14.3544 295.494 11.5598 295.004 9.25578 294.022C6.99438 293.041 5.26638 291.654 4.07175 289.862C2.91975 288.028 2.34375 285.809 2.34375 283.206C2.34375 281.116 2.77042 279.302 3.62375 277.766C4.51975 276.23 5.69308 274.908 7.14378 273.798C8.59438 272.689 10.1518 271.75 11.8158 270.982C10.3224 270.129 8.95708 269.169 7.71978 268.102C6.52508 266.993 5.56508 265.734 4.83975 264.326C4.15708 262.918 3.81575 261.276 3.81575 259.398C3.81575 257.052 4.41308 255.089 5.60778 253.51C6.80238 251.889 8.42378 250.652 10.4718 249.798C12.5198 248.945 14.8451 248.518 17.4478 248.518ZM7.84778 283.27C7.84778 285.489 8.63708 287.345 10.2158 288.838C11.7944 290.289 14.2264 291.014 17.5118 291.014C19.6024 291.014 21.3518 290.673 22.7598 289.99C24.1678 289.308 25.2344 288.369 25.9598 287.174C26.7278 285.98 27.1118 284.614 27.1118 283.078C27.1118 281.585 26.7064 280.284 25.8958 279.174C25.1278 278.022 24.0184 276.998 22.5678 276.102C21.1598 275.206 19.4744 274.396 17.5118 273.67L16.4878 273.286C14.6104 274.097 13.0318 274.972 11.7518 275.91C10.4718 276.849 9.49038 277.916 8.80778 279.11C8.16778 280.305 7.84778 281.692 7.84778 283.27ZM17.3838 253.062C15.0371 253.062 13.0958 253.638 11.5598 254.79C10.0664 255.9 9.31978 257.521 9.31978 259.654C9.31978 261.233 9.68238 262.556 10.4078 263.622C11.1758 264.689 12.1998 265.606 13.4798 266.374C14.7598 267.1 16.1678 267.804 17.7038 268.486C19.1971 267.846 20.5198 267.142 21.6718 266.374C22.8664 265.606 23.8051 264.689 24.4878 263.622C25.2131 262.513 25.5758 261.19 25.5758 259.654C25.5758 257.521 24.8291 255.9 23.3358 254.79C21.8424 253.638 19.8584 253.062 17.3838 253.062Z" fill="white"/>
<path d="M44.9219 291.397C44.9219 289.819 45.3059 288.709 46.0739 288.069C46.8419 287.429 47.7592 287.109 48.8259 287.109C49.9352 287.109 50.8739 287.429 51.6419 288.069C52.4525 288.709 52.8579 289.819 52.8579 291.397C52.8579 292.933 52.4525 294.043 51.6419 294.725C50.8739 295.408 49.9352 295.749 48.8259 295.749C47.7592 295.749 46.8419 295.408 46.0739 294.725C45.3059 294.043 44.9219 292.933 44.9219 291.397Z" fill="white"/>
<path d="M95.2002 294.854H64.9922V290.182L76.9602 278.086C79.2642 275.782 81.2055 273.734 82.7842 271.942C84.3628 270.15 85.5575 268.401 86.3682 266.694C87.1788 264.945 87.5842 263.046 87.5842 260.998C87.5842 258.481 86.8375 256.582 85.3442 255.302C83.8508 253.98 81.9095 253.318 79.5202 253.318C77.3015 253.318 75.3388 253.702 73.6322 254.47C71.9682 255.238 70.2615 256.305 68.5122 257.67L65.5042 253.894C66.6988 252.87 68.0002 251.953 69.4082 251.142C70.8588 250.332 72.4162 249.692 74.0802 249.222C75.7868 248.753 77.6002 248.518 79.5202 248.518C82.3788 248.518 84.8322 249.009 86.8802 249.99C88.9282 250.972 90.5068 252.38 91.6162 254.214C92.7682 256.006 93.3442 258.161 93.3442 260.678C93.3442 262.47 93.0668 264.177 92.5122 265.798C91.9575 267.377 91.1682 268.934 90.1442 270.47C89.1202 272.006 87.8828 273.564 86.4322 275.142C84.9815 276.721 83.3815 278.364 81.6322 280.07L72.0962 289.478V289.734H95.2002V294.854Z" fill="white"/>
<path d="M106.543 275.334C106.543 272.689 106.714 270.086 107.055 267.526C107.439 264.966 108.079 262.556 108.975 260.294C109.871 257.99 111.109 255.964 112.687 254.214C114.266 252.422 116.25 251.036 118.639 250.054C121.071 249.03 124.015 248.518 127.471 248.518C128.367 248.518 129.349 248.561 130.415 248.646C131.525 248.732 132.421 248.881 133.103 249.094V253.894C132.335 253.638 131.461 253.446 130.479 253.318C129.541 253.19 128.581 253.126 127.599 253.126C124.655 253.126 122.202 253.617 120.239 254.598C118.277 255.58 116.719 256.924 115.567 258.63C114.458 260.337 113.647 262.3 113.135 264.518C112.623 266.737 112.303 269.105 112.175 271.622H112.559C113.199 270.598 114.01 269.681 114.991 268.87C115.973 268.06 117.146 267.42 118.511 266.95C119.919 266.481 121.541 266.246 123.375 266.246C126.021 266.246 128.325 266.801 130.287 267.91C132.293 268.977 133.85 270.556 134.959 272.646C136.069 274.694 136.623 277.19 136.623 280.134C136.623 283.292 136.026 286.022 134.831 288.326C133.637 290.63 131.951 292.401 129.775 293.638C127.642 294.876 125.082 295.494 122.095 295.494C119.919 295.494 117.893 295.089 116.015 294.278C114.138 293.468 112.474 292.23 111.023 290.566C109.615 288.902 108.506 286.812 107.695 284.294C106.927 281.734 106.543 278.748 106.543 275.334ZM122.031 290.758C124.719 290.758 126.895 289.905 128.559 288.198C130.223 286.449 131.055 283.761 131.055 280.134C131.055 277.233 130.309 274.929 128.815 273.222C127.365 271.516 125.167 270.662 122.223 270.662C120.218 270.662 118.469 271.089 116.975 271.942C115.482 272.753 114.309 273.798 113.455 275.078C112.645 276.358 112.239 277.681 112.239 279.046C112.239 280.454 112.431 281.841 112.815 283.206C113.242 284.572 113.861 285.83 114.671 286.982C115.525 288.134 116.549 289.052 117.743 289.734C118.981 290.417 120.41 290.758 122.031 290.758Z" fill="white"/>
<path d="M349.448 248.518C352.136 248.518 354.504 248.945 356.552 249.798C358.6 250.609 360.2 251.825 361.352 253.446C362.547 255.068 363.144 257.073 363.144 259.462C363.144 261.297 362.739 262.897 361.928 264.262C361.16 265.628 360.115 266.844 358.792 267.91C357.47 268.934 356.019 269.852 354.44 270.662C356.317 271.558 358.024 272.582 359.56 273.734C361.096 274.844 362.312 276.145 363.208 277.638C364.147 279.132 364.616 280.924 364.616 283.014C364.616 285.574 363.998 287.793 362.76 289.67C361.523 291.505 359.774 292.934 357.512 293.958C355.294 294.982 352.67 295.494 349.64 295.494C346.355 295.494 343.56 295.004 341.256 294.022C338.995 293.041 337.267 291.654 336.072 289.862C334.92 288.028 334.344 285.809 334.344 283.206C334.344 281.116 334.771 279.302 335.624 277.766C336.52 276.23 337.694 274.908 339.144 273.798C340.595 272.689 342.152 271.75 343.816 270.982C342.323 270.129 340.957 269.169 339.72 268.102C338.525 266.993 337.565 265.734 336.84 264.326C336.157 262.918 335.816 261.276 335.816 259.398C335.816 257.052 336.413 255.089 337.608 253.51C338.803 251.889 340.424 250.652 342.472 249.798C344.52 248.945 346.845 248.518 349.448 248.518ZM339.848 283.27C339.848 285.489 340.637 287.345 342.216 288.838C343.795 290.289 346.227 291.014 349.512 291.014C351.603 291.014 353.352 290.673 354.76 289.99C356.168 289.308 357.235 288.369 357.96 287.174C358.728 285.98 359.112 284.614 359.112 283.078C359.112 281.585 358.707 280.284 357.896 279.174C357.128 278.022 356.019 276.998 354.568 276.102C353.16 275.206 351.475 274.396 349.512 273.67L348.488 273.286C346.611 274.097 345.032 274.972 343.752 275.91C342.472 276.849 341.491 277.916 340.808 279.11C340.168 280.305 339.848 281.692 339.848 283.27ZM349.384 253.062C347.037 253.062 345.096 253.638 343.56 254.79C342.067 255.9 341.32 257.521 341.32 259.654C341.32 261.233 341.683 262.556 342.408 263.622C343.176 264.689 344.2 265.606 345.48 266.374C346.76 267.1 348.168 267.804 349.704 268.486C351.198 267.846 352.52 267.142 353.672 266.374C354.867 265.606 355.806 264.689 356.488 263.622C357.214 262.513 357.576 261.19 357.576 259.654C357.576 257.521 356.829 255.9 355.336 254.79C353.843 253.638 351.859 253.062 349.384 253.062Z" fill="white"/>
<path d="M376.922 291.397C376.922 289.819 377.306 288.709 378.074 288.069C378.842 287.429 379.76 287.109 380.826 287.109C381.936 287.109 382.874 287.429 383.642 288.069C384.453 288.709 384.858 289.819 384.858 291.397C384.858 292.933 384.453 294.043 383.642 294.725C382.874 295.408 381.936 295.749 380.826 295.749C379.76 295.749 378.842 295.408 378.074 294.725C377.306 294.043 376.922 292.933 376.922 291.397Z" fill="white"/>
<path d="M427.2 294.854H396.992V290.182L408.96 278.086C411.264 275.782 413.206 273.734 414.784 271.942C416.363 270.15 417.557 268.401 418.368 266.694C419.179 264.945 419.584 263.046 419.584 260.998C419.584 258.481 418.838 256.582 417.344 255.302C415.851 253.98 413.91 253.318 411.52 253.318C409.301 253.318 407.339 253.702 405.632 254.47C403.968 255.238 402.262 256.305 400.512 257.67L397.504 253.894C398.699 252.87 400 251.953 401.408 251.142C402.859 250.332 404.416 249.692 406.08 249.222C407.787 248.753 409.6 248.518 411.52 248.518C414.379 248.518 416.832 249.009 418.88 249.99C420.928 250.972 422.507 252.38 423.616 254.214C424.768 256.006 425.344 258.161 425.344 260.678C425.344 262.47 425.067 264.177 424.512 265.798C423.958 267.377 423.168 268.934 422.144 270.47C421.12 272.006 419.883 273.564 418.432 275.142C416.982 276.721 415.381 278.364 413.632 280.07L404.096 289.478V289.734H427.2V294.854Z" fill="white"/>
<path d="M453.264 248.518C455.952 248.518 458.32 248.945 460.368 249.798C462.416 250.609 464.016 251.825 465.168 253.446C466.363 255.068 466.96 257.073 466.96 259.462C466.96 261.297 466.555 262.897 465.744 264.262C464.976 265.628 463.931 266.844 462.608 267.91C461.286 268.934 459.835 269.852 458.256 270.662C460.133 271.558 461.84 272.582 463.376 273.734C464.912 274.844 466.128 276.145 467.024 277.638C467.963 279.132 468.432 280.924 468.432 283.014C468.432 285.574 467.814 287.793 466.576 289.67C465.339 291.505 463.59 292.934 461.328 293.958C459.11 294.982 456.486 295.494 453.456 295.494C450.171 295.494 447.376 295.004 445.072 294.022C442.811 293.041 441.083 291.654 439.888 289.862C438.736 288.028 438.16 285.809 438.16 283.206C438.16 281.116 438.587 279.302 439.44 277.766C440.336 276.23 441.51 274.908 442.96 273.798C444.411 272.689 445.968 271.75 447.632 270.982C446.139 270.129 444.773 269.169 443.536 268.102C442.341 266.993 441.381 265.734 440.656 264.326C439.973 262.918 439.632 261.276 439.632 259.398C439.632 257.052 440.229 255.089 441.424 253.51C442.619 251.889 444.24 250.652 446.288 249.798C448.336 248.945 450.661 248.518 453.264 248.518ZM443.664 283.27C443.664 285.489 444.454 287.345 446.032 288.838C447.611 290.289 450.043 291.014 453.328 291.014C455.419 291.014 457.168 290.673 458.576 289.99C459.984 289.308 461.051 288.369 461.776 287.174C462.544 285.98 462.928 284.614 462.928 283.078C462.928 281.585 462.523 280.284 461.712 279.174C460.944 278.022 459.835 276.998 458.384 276.102C456.976 275.206 455.291 274.396 453.328 273.67L452.304 273.286C450.427 274.097 448.848 274.972 447.568 275.91C446.288 276.849 445.307 277.916 444.624 279.11C443.984 280.305 443.664 281.692 443.664 283.27ZM453.2 253.062C450.853 253.062 448.912 253.638 447.376 254.79C445.883 255.9 445.136 257.521 445.136 259.654C445.136 261.233 445.499 262.556 446.224 263.622C446.992 264.689 448.016 265.606 449.296 266.374C450.576 267.1 451.984 267.804 453.52 268.486C455.014 267.846 456.336 267.142 457.488 266.374C458.683 265.606 459.622 264.689 460.304 263.622C461.03 262.513 461.392 261.19 461.392 259.654C461.392 257.521 460.645 255.9 459.152 254.79C457.659 253.638 455.675 253.062 453.2 253.062Z" fill="white"/>
<path d="M743.954 52.7614H718.418V7.06543H743.954V12.1214H724.178V26.3934H742.802V31.3854H724.178V47.7054H743.954V52.7614Z" fill="white"/>
<path d="M789.5 52.7614H782.972L770.876 32.9214L758.588 52.7614H752.508L767.676 28.9534L753.468 7.06543H759.868L771.068 24.9854L782.332 7.06543H788.412L774.268 28.8254L789.5 52.7614Z" fill="white"/>
<path d="M835.385 52.7614H829.625V31.4494H806.201V52.7614H800.441V7.06543H806.201V26.3934H829.625V7.06543H835.385V52.7614Z" fill="white"/>
<path d="M865.219 52.7614H848.707V49.4334L854.083 48.2174V11.6734L848.707 10.3934V7.06543H865.219V10.3934L859.843 11.6734V48.2174L865.219 49.4334V52.7614Z" fill="white"/>
<path d="M891.579 7.06543C895.376 7.06543 898.555 7.42813 901.115 8.15343C903.717 8.87873 905.659 10.0734 906.939 11.7374C908.261 13.4014 908.923 15.6201 908.923 18.3934C908.923 20.1854 908.581 21.7854 907.899 23.1934C907.259 24.5587 906.277 25.7107 904.955 26.6494C903.675 27.5454 902.096 28.1641 900.219 28.5054V28.8254C902.139 29.1241 903.867 29.6787 905.403 30.4894C906.981 31.3001 908.219 32.4521 909.115 33.9454C910.011 35.4387 910.459 37.3801 910.459 39.7694C910.459 42.5427 909.819 44.9107 908.539 46.8734C907.259 48.7934 905.424 50.2654 903.035 51.2894C900.688 52.2707 897.872 52.7614 894.587 52.7614H878.523V7.06543H891.579ZM892.731 26.5214C896.656 26.5214 899.344 25.9027 900.795 24.6654C902.245 23.3854 902.971 21.5081 902.971 19.0334C902.971 16.5161 902.075 14.7241 900.283 13.6574C898.533 12.5481 895.717 11.9934 891.835 11.9934H884.283V26.5214H892.731ZM884.283 31.3214V47.8974H893.499C897.552 47.8974 900.368 47.1081 901.947 45.5294C903.525 43.9507 904.315 41.8814 904.315 39.3214C904.315 37.7001 903.952 36.2921 903.227 35.0974C902.544 33.9027 901.371 32.9854 899.707 32.3454C898.085 31.6627 895.867 31.3214 893.051 31.3214H884.283Z" fill="white"/>
<path d="M937.492 52.7614H920.98V49.4334L926.356 48.2174V11.6734L920.98 10.3934V7.06543H937.492V10.3934L932.116 11.6734V48.2174L937.492 49.4334V52.7614Z" fill="white"/>
<path d="M965.262 52.7614H959.502V12.1214H945.23V7.06543H979.47V12.1214H965.262V52.7614Z" fill="white"/>
<path d="M1003.7 52.7614H987.191V49.4334L992.567 48.2174V11.6734L987.191 10.3934V7.06543H1003.7V10.3934L998.33 11.6734V48.2174L1003.7 49.4334V52.7614Z" fill="white"/>
<path d="M1056.88 29.8493C1056.88 33.3906 1056.43 36.612 1055.53 39.5133C1054.64 42.372 1053.29 44.8466 1051.5 46.9373C1049.75 49.028 1047.56 50.628 1044.91 51.7373C1042.31 52.8466 1039.28 53.4013 1035.82 53.4013C1032.24 53.4013 1029.12 52.8466 1026.48 51.7373C1023.83 50.5853 1021.64 48.9853 1019.89 46.9373C1018.14 44.8466 1016.84 42.3506 1015.98 39.4493C1015.13 36.548 1014.7 33.3266 1014.7 29.7853C1014.7 25.092 1015.47 20.996 1017.01 17.4973C1018.54 13.9986 1020.87 11.268 1023.98 9.30533C1027.14 7.34263 1031.11 6.36133 1035.89 6.36133C1040.45 6.36133 1044.29 7.34263 1047.41 9.30533C1050.52 11.2253 1052.87 13.956 1054.45 17.4973C1056.07 20.996 1056.88 25.1133 1056.88 29.8493ZM1020.78 29.8493C1020.78 33.6893 1021.32 36.996 1022.38 39.7693C1023.45 42.5426 1025.09 44.676 1027.31 46.1693C1029.57 47.6626 1032.41 48.4093 1035.82 48.4093C1039.28 48.4093 1042.09 47.6626 1044.27 46.1693C1046.49 44.676 1048.13 42.5426 1049.2 39.7693C1050.26 36.996 1050.8 33.6893 1050.8 29.8493C1050.8 24.0893 1049.6 19.588 1047.21 16.3453C1044.82 13.06 1041.05 11.4173 1035.89 11.4173C1032.43 11.4173 1029.57 12.164 1027.31 13.6573C1025.09 15.108 1023.45 17.22 1022.38 19.9933C1021.32 22.724 1020.78 26.0093 1020.78 29.8493Z" fill="white"/>
<path d="M1107.71 52.7614H1100.99L1076.54 14.8094H1076.29C1076.33 15.5774 1076.37 16.4307 1076.41 17.3694C1076.5 18.3081 1076.56 19.3321 1076.61 20.4414C1076.65 21.5081 1076.69 22.6174 1076.73 23.7694C1076.78 24.9214 1076.8 26.0734 1076.8 27.2254V52.7614H1071.49V7.06543H1078.14L1102.53 44.8894H1102.78C1102.74 44.3774 1102.7 43.6734 1102.65 42.7774C1102.61 41.8387 1102.57 40.8147 1102.53 39.7054C1102.48 38.5534 1102.44 37.3801 1102.4 36.1854C1102.36 34.9907 1102.33 33.8814 1102.33 32.8574V7.06543H1107.71V52.7614Z" fill="white"/>
<path d="M749.103 137.642L759.727 137.627L759.75 147.867C759.76 152.667 760.66 154.458 764.82 154.452L768.98 154.446C770.196 154.444 771.476 154.378 772.116 154.121C772.049 153.033 771.853 151.242 771.787 150.026C771.019 150.219 769.803 150.349 768.971 150.35L765.195 150.355C764.299 150.356 764.17 149.781 764.166 147.989L764.134 133.141L744.678 133.168L744.693 140.208C744.703 144.752 743.626 150.002 736.787 153.916C737.621 154.618 739.225 156.408 739.867 157.367C747.473 152.876 749.122 146.09 749.109 140.33L749.103 137.642ZM730.546 138.885C729.517 136.582 727.462 133.257 725.6 130.636L721.892 132.497C723.69 135.182 725.746 138.763 726.711 141.066L730.546 138.885ZM739.192 141.752L715 141.787L715.009 145.691L739.201 145.656L739.192 141.752ZM717.797 162.263L736.677 162.236L736.669 158.46L717.789 158.487L717.797 162.263ZM717.771 150.167L717.779 153.943L736.595 153.916L736.587 150.14L717.771 150.167ZM763.56 163.414C761.459 168.281 758.331 172.317 754.563 175.65C750.715 172.264 747.634 168.172 745.512 163.439L763.56 163.414ZM732.432 181.506L721.936 181.521L721.912 170.961L732.408 170.946L732.432 181.506ZM766.622 158.737L765.79 158.93L738.526 158.969L738.536 163.449L744.104 163.441L741.354 164.405C743.67 169.842 746.945 174.637 750.921 178.536C746.64 181.486 741.716 183.669 736.663 185.02L736.624 166.972L717.744 166.999L717.791 188.503L721.951 188.497L721.944 185.489L736.536 185.468C737.371 186.555 738.27 188.218 738.721 189.433C744.477 187.697 749.848 185.129 754.576 181.602C759.127 185.052 764.445 187.604 770.465 189.196C771.102 187.851 772.441 185.929 773.399 184.904C767.7 183.632 762.64 181.463 758.281 178.525C763.327 173.846 767.282 167.824 769.633 160.077L766.622 158.737ZM800.838 176.928L792.198 176.941L792.156 158.061L800.796 158.049L800.838 176.928ZM783.73 138.681L791.73 138.669C790.023 148.4 787.099 157.364 782.632 163.386C783.403 164.665 784.497 167.352 784.755 168.439C786.032 166.902 787.052 165.108 788.136 163.251L788.186 186.354L792.218 186.349L792.207 181.229L805.071 181.21L805.011 153.819L792.275 153.837C793.865 149.098 795.197 143.912 796.21 138.663L806.13 138.649L806.12 134.297L783.72 134.329L783.73 138.681ZM819.418 157.126L819.378 138.758L829.746 138.743L829.786 157.111L819.418 157.126ZM841.562 157.094L834.33 157.105L834.29 138.737L840.242 138.728L840.232 134.248L809.576 134.292L809.586 138.772L814.834 138.765L814.874 157.132L807.834 157.142L807.844 161.686L814.82 161.677C814.647 170.253 813.26 179.919 806.747 186.776C807.837 187.351 809.568 188.692 810.337 189.523C817.553 182.025 819.194 171.398 819.364 161.67L829.796 161.655L829.857 189.175L834.401 189.169L834.34 161.649L841.572 161.638L841.562 157.094ZM877.819 142.835L904.699 142.797L904.714 149.773L909.258 149.766L909.234 138.63L893.298 138.653L894.641 138.139C893.868 136.028 892.133 132.702 890.463 130.209L886.178 131.623C887.527 133.733 888.941 136.483 889.65 138.658L873.394 138.681L873.418 149.817L877.834 149.811L877.819 142.835ZM904.084 154.125L904.075 149.901L878.539 149.938L878.548 154.162L904.084 154.125ZM869.222 133.119L868.454 133.312L853.99 133.333L854.112 189.077L858.4 189.071L858.288 137.679L866.736 137.667C865.401 141.957 863.493 147.463 861.711 152.074C866.266 157.123 867.428 161.474 867.436 164.93C867.44 166.914 867.124 168.706 866.101 169.412C865.59 169.796 864.886 169.925 864.119 169.99C863.095 170.12 861.879 170.058 860.406 169.932C861.177 171.147 861.565 172.938 861.632 174.154C863.04 174.216 864.64 174.214 865.919 174.02C867.199 173.89 868.35 173.504 869.245 172.799C870.97 171.581 871.732 168.764 871.724 165.372C871.716 161.404 870.618 156.797 865.934 151.556C868.099 146.433 870.389 140.221 872.298 134.971L869.222 133.119ZM900.118 184.211C898.71 184.213 898.453 183.957 898.45 182.357L898.413 165.654L909.741 165.637L909.732 161.285L873.7 161.337L873.709 165.689L882.605 165.676C881.795 175.597 879.249 181.873 868.248 185.344C869.21 186.239 870.494 187.965 871.009 189.117C883.095 184.875 886.151 177.383 887.213 165.669L893.933 165.66L893.97 182.428C893.98 186.972 895.007 188.314 899.487 188.308L905.119 188.3C908.959 188.295 910.17 186.181 910.536 177.86C909.256 177.67 907.462 176.905 906.436 176.138C906.324 183.114 906.07 184.203 904.662 184.205L900.118 184.211ZM965.82 153.782L965.829 157.878L948.613 157.902L948.604 153.806L965.82 153.782ZM948.373 165.454C948.498 163.982 948.559 162.446 948.62 161.102L965.836 161.078L965.845 165.43L948.373 165.454ZM970.269 168.943L970.228 150.255L944.116 150.292L944.135 158.932C944.151 166.1 943.47 176.661 938.495 184.284C939.648 184.731 941.634 185.688 942.531 186.391C945.72 181.33 947.306 174.992 948.061 168.975L970.269 168.943ZM951.014 143.947L951.021 147.083L964.461 147.063L964.454 143.927L951.014 143.947ZM967.531 175.475L967.546 182.195L952.122 182.217L952.107 175.497L967.531 175.475ZM948.04 188.623L952.136 188.617L952.13 185.993L967.554 185.971L967.56 188.467L971.784 188.461L971.747 171.885L948.004 171.919L948.04 188.623ZM956.49 131.075C952.664 137.48 945.572 142.93 938.539 146.332C939.374 147.355 940.658 149.593 941.173 150.681C946.926 147.536 952.868 142.984 957.208 137.666C962.335 140.858 968.232 144.818 971.374 147.438L973.861 143.53C970.72 140.975 964.759 137.271 959.761 134.27C960.08 133.758 960.463 133.245 960.782 132.733L956.49 131.075ZM981.912 137.631L977.432 137.637L977.509 172.709L981.989 172.703L981.912 137.631ZM989.385 130.836L989.499 182.676C989.502 183.764 989.118 184.084 988.03 184.15C987.007 184.215 983.551 184.22 979.71 184.098C980.353 185.441 981.062 187.552 981.321 188.831C986.505 188.824 989.64 188.692 991.559 187.857C993.349 187.086 994.114 185.613 994.107 182.605L993.993 130.829L989.385 130.836ZM1012.62 187.251C1015.87 184.238 1018.49 179.499 1020.27 175.656L1016.3 173.87C1014.77 177.584 1011.96 182.196 1008.77 185.016L1012.62 187.251ZM1051.98 160.187L1021.39 160.23L1021.38 155.814L1051.97 155.771L1051.98 160.187ZM1052 167.739L1021.4 167.782L1021.39 163.366L1051.99 163.323L1052 167.739ZM1056.64 152.5L1016.83 152.557L1016.87 171.053L1032.93 171.03L1030.76 173.081C1034.28 175.124 1038.64 178.126 1040.7 180.235L1043.63 177.287C1041.65 175.434 1037.8 172.815 1034.47 171.028L1056.68 170.996L1056.64 152.5ZM1032.32 184.407C1028.99 184.412 1028.42 184.092 1028.41 182.62L1028.4 174.364L1023.72 174.371L1023.74 182.627C1023.75 187.171 1025.48 188.385 1031.95 188.375L1043.98 188.358C1049.1 188.351 1050.57 186.621 1051.06 179.58C1049.85 179.262 1047.99 178.625 1046.96 177.922C1046.66 183.618 1046.27 184.387 1043.52 184.391L1032.32 184.407ZM1051.95 174.907C1055.16 178.358 1058.69 183.025 1060.1 186.223L1064.13 184.17C1062.52 181.036 1058.93 176.433 1055.72 173.238L1051.95 174.907ZM1046.81 139.074C1046.11 140.931 1044.97 143.429 1043.88 145.414L1029.1 145.435C1028.58 143.58 1027.43 141.022 1026.27 139.103L1046.81 139.074ZM1048.75 145.407C1049.7 143.742 1050.72 141.885 1051.74 139.899L1048.03 139.072L1060.77 139.054L1060.76 135.15L1040.34 135.179C1039.57 133.517 1038.54 131.47 1037.45 130L1032.84 130.966C1033.61 132.245 1034.45 133.716 1035.09 135.187L1012.25 135.219V139.123L1025.89 139.104L1021.86 140.006C1022.82 141.668 1023.66 143.779 1024.17 145.442L1009.39 145.463L1009.4 149.367L1064.05 149.29L1064.04 145.386L1048.75 145.407ZM1084.33 145.485L1092.72 145.473V149.569L1085.56 150.347L1085.95 153.29L1092.73 152.513V152.961C1092.74 156.481 1093.58 158.016 1097.54 158.01L1106.82 157.997C1108.55 157.994 1110.34 157.992 1111.24 157.67C1111.11 156.839 1110.98 155.751 1110.91 154.727C1109.95 154.984 1107.78 154.987 1106.62 154.989L1098.24 155.001C1096.77 155.003 1096.58 154.555 1096.57 153.019V152.123L1105.46 151.151L1105.07 148.271L1096.56 149.115V145.467L1108.72 145.45C1108.27 147.371 1107.7 149.356 1107.19 150.828L1110.65 151.591C1111.67 149.286 1112.75 145.636 1113.44 142.371L1110.69 141.671L1109.99 141.864L1096.93 141.883L1096.92 137.979L1111.2 137.959L1111.19 134.439L1096.92 134.459L1096.91 130.491L1092.43 130.497L1092.45 141.889L1080.23 141.907L1080.27 158.995C1080.28 167.315 1079.8 178.643 1075.33 186.778C1076.3 187.224 1078.15 188.246 1078.86 189.013C1083.7 180.494 1084.38 167.949 1084.36 158.989L1084.33 145.485ZM1108.18 165.675C1106.59 167.469 1103.97 169.905 1101.61 171.828C1100.64 170.102 1099.29 168.376 1097.63 166.842C1099.1 165.944 1100.44 164.982 1101.59 163.956L1112.4 163.941V160.549L1085.9 160.587L1085.91 163.979L1097.04 163.963C1093.91 166.015 1089.37 167.942 1085.6 169.035C1086.11 169.674 1086.88 170.825 1087.2 171.529C1089.64 170.757 1092.26 169.666 1094.75 168.51C1095.39 169.085 1096.03 169.724 1096.61 170.427C1093.74 172.671 1088.75 174.983 1084.91 176.076C1085.62 176.715 1086.39 177.866 1086.77 178.697C1090.48 177.284 1094.96 174.846 1098.09 172.537C1098.54 173.369 1098.92 174.264 1099.24 175.032C1095.48 178.749 1088.38 182.599 1082.5 184.271C1083.2 184.974 1084.1 186.253 1084.49 187.085C1089.73 185.157 1095.87 181.628 1100.02 178.102C1100.47 181.238 1099.78 183.863 1098.5 184.697C1097.73 185.466 1096.77 185.531 1095.56 185.533C1094.6 185.534 1093.06 185.472 1091.33 185.283C1091.97 186.306 1092.36 187.777 1092.43 188.801C1093.84 188.863 1095.18 188.861 1096.27 188.86C1098.44 188.857 1099.66 188.535 1101.13 187.253C1103.75 185.329 1104.76 180.016 1102.83 174.642C1103.4 174.258 1103.98 173.809 1104.62 173.36C1106.61 176.493 1110.21 182.696 1111.36 185.318L1114.43 182.498C1113.27 180.772 1108.91 174.122 1107.04 171.5C1108.45 170.346 1109.92 169.064 1111.2 167.911L1108.18 165.675ZM1120.86 138.073L1116.57 138.079L1116.65 173.983L1120.94 173.977L1120.86 138.073ZM1126.86 132.368L1126.97 182.608C1126.98 183.632 1126.66 183.953 1125.63 183.954C1124.54 184.02 1121.09 184.024 1117.44 183.902C1118.08 185.245 1118.79 187.356 1118.92 188.636C1123.66 188.693 1126.92 188.56 1128.9 187.725C1130.76 186.955 1131.46 185.61 1131.45 182.538L1131.34 132.362L1126.86 132.368ZM1193.76 140.785L1173.28 140.814L1173.27 135.758L1193.75 135.729L1193.76 140.785ZM1193.78 149.233L1173.3 149.262L1173.29 144.142L1193.77 144.113L1193.78 149.233ZM1198.16 132.139L1168.91 132.18L1168.96 152.852L1198.2 152.811L1198.16 132.139ZM1163.54 163.612L1157.02 166.565L1156.98 148.581L1163.89 148.572L1163.88 144.092L1156.97 144.101L1156.94 130.789L1152.52 130.796L1152.55 144.108L1145.06 144.118L1145.07 148.598L1152.56 148.588L1152.61 168.62C1149.35 170.096 1146.34 171.381 1143.91 172.408L1145.78 177.077C1151.15 174.51 1158.12 171.108 1164.57 167.835L1163.54 163.612ZM1202.76 160.42V156.388L1162.69 156.445L1162.7 160.477L1171.66 160.464C1168.66 165.717 1164.07 170.267 1159.02 173.282C1159.98 173.921 1161.65 175.455 1162.29 176.222C1165.16 174.298 1168.04 171.798 1170.59 168.914L1177.06 168.905C1173.61 174.606 1167.99 180.374 1162.69 183.261C1163.84 184.028 1165.12 185.178 1165.83 186.201C1171.71 182.48 1177.97 175.495 1181.34 168.899L1187.55 168.89C1184.94 175.806 1180.29 182.724 1175.11 186.188C1176.26 186.89 1177.74 187.976 1178.51 188.935C1184 184.767 1188.98 176.504 1191.52 168.884L1196.51 168.877C1195.7 178.926 1194.75 182.96 1193.66 184.113C1193.22 184.754 1192.64 184.819 1191.75 184.82C1190.79 184.821 1188.67 184.76 1186.31 184.572C1186.95 185.531 1187.4 187.258 1187.4 188.41C1189.96 188.534 1192.33 188.531 1193.74 188.465C1195.21 188.271 1196.36 187.949 1197.32 186.86C1199.11 185.001 1200.12 180.008 1201.05 166.823C1201.18 166.182 1201.24 164.902 1201.24 164.902L1173.72 164.942C1174.74 163.532 1175.63 161.995 1176.46 160.458L1202.76 160.42Z" fill="white"/>
<path d="M730.448 244.926C733.136 244.926 735.504 245.353 737.552 246.206C739.6 247.017 741.2 248.233 742.352 249.854C743.547 251.475 744.144 253.481 744.144 255.87C744.144 257.705 743.739 259.305 742.928 260.67C742.16 262.035 741.115 263.251 739.792 264.318C738.469 265.342 737.019 266.259 735.44 267.07C737.317 267.966 739.024 268.99 740.56 270.142C742.096 271.251 743.312 272.553 744.208 274.046C745.147 275.539 745.616 277.331 745.616 279.422C745.616 281.982 744.998 284.201 743.76 286.078C742.523 287.913 740.774 289.342 738.512 290.366C736.294 291.39 733.67 291.902 730.64 291.902C727.355 291.902 724.56 291.411 722.256 290.43C719.995 289.449 718.267 288.062 717.072 286.27C715.92 284.435 715.344 282.217 715.344 279.614C715.344 277.523 715.771 275.71 716.624 274.174C717.52 272.638 718.693 271.315 720.144 270.206C721.595 269.097 723.152 268.158 724.816 267.39C723.323 266.537 721.958 265.577 720.72 264.51C719.526 263.401 718.566 262.142 717.84 260.734C717.158 259.326 716.816 257.683 716.816 255.806C716.816 253.459 717.414 251.497 718.608 249.918C719.803 248.297 721.424 247.059 723.472 246.206C725.52 245.353 727.845 244.926 730.448 244.926ZM720.848 279.678C720.848 281.897 721.637 283.753 723.216 285.246C724.795 286.697 727.227 287.422 730.512 287.422C732.603 287.422 734.352 287.081 735.76 286.398C737.168 285.715 738.235 284.777 738.96 283.582C739.728 282.387 740.112 281.022 740.112 279.486C740.112 277.993 739.707 276.691 738.896 275.582C738.128 274.43 737.019 273.406 735.568 272.51C734.16 271.614 732.475 270.803 730.512 270.078L729.488 269.694C727.611 270.505 726.032 271.379 724.752 272.318C723.472 273.257 722.491 274.323 721.808 275.518C721.168 276.713 720.848 278.099 720.848 279.678ZM730.384 249.47C728.038 249.47 726.096 250.046 724.56 251.198C723.067 252.307 722.32 253.929 722.32 256.062C722.32 257.641 722.683 258.963 723.408 260.03C724.176 261.097 725.2 262.014 726.48 262.782C727.76 263.507 729.168 264.211 730.704 264.894C732.197 264.254 733.52 263.55 734.672 262.782C735.867 262.014 736.806 261.097 737.488 260.03C738.214 258.921 738.576 257.598 738.576 256.062C738.576 253.929 737.829 252.307 736.336 251.198C734.843 250.046 732.859 249.47 730.384 249.47Z" fill="white"/>
<path d="M757.922 287.806C757.922 286.227 758.306 285.118 759.074 284.478C759.842 283.838 760.76 283.518 761.826 283.518C762.936 283.518 763.874 283.838 764.642 284.478C765.453 285.118 765.858 286.227 765.858 287.806C765.858 289.342 765.453 290.451 764.642 291.134C763.874 291.817 762.936 292.158 761.826 292.158C760.76 292.158 759.842 291.817 759.074 291.134C758.306 290.451 757.922 289.342 757.922 287.806Z" fill="white"/>
<path d="M808.2 291.262H777.992V286.59L789.96 274.494C792.264 272.19 794.205 270.142 795.784 268.35C797.363 266.558 798.558 264.809 799.368 263.102C800.179 261.353 800.584 259.454 800.584 257.406C800.584 254.889 799.837 252.99 798.344 251.71C796.851 250.387 794.91 249.726 792.52 249.726C790.301 249.726 788.339 250.11 786.632 250.878C784.968 251.646 783.262 252.713 781.512 254.078L778.504 250.302C779.699 249.278 781 248.361 782.408 247.55C783.859 246.739 785.416 246.099 787.08 245.63C788.787 245.161 790.6 244.926 792.52 244.926C795.379 244.926 797.832 245.417 799.88 246.398C801.928 247.379 803.507 248.787 804.616 250.622C805.768 252.414 806.344 254.569 806.344 257.086C806.344 258.878 806.067 260.585 805.512 262.206C804.958 263.785 804.168 265.342 803.144 266.878C802.12 268.414 800.883 269.971 799.432 271.55C797.981 273.129 796.381 274.771 794.632 276.478L785.096 285.886V286.142H808.2V291.262Z" fill="white"/>
<path d="M834.264 244.926C836.952 244.926 839.32 245.353 841.368 246.206C843.416 247.017 845.016 248.233 846.168 249.854C847.363 251.475 847.96 253.481 847.96 255.87C847.96 257.705 847.555 259.305 846.744 260.67C845.976 262.035 844.931 263.251 843.608 264.318C842.285 265.342 840.835 266.259 839.256 267.07C841.133 267.966 842.84 268.99 844.376 270.142C845.912 271.251 847.128 272.553 848.024 274.046C848.963 275.539 849.432 277.331 849.432 279.422C849.432 281.982 848.814 284.201 847.576 286.078C846.339 287.913 844.59 289.342 842.328 290.366C840.11 291.39 837.486 291.902 834.456 291.902C831.171 291.902 828.376 291.411 826.072 290.43C823.811 289.449 822.083 288.062 820.888 286.27C819.736 284.435 819.16 282.217 819.16 279.614C819.16 277.523 819.587 275.71 820.44 274.174C821.336 272.638 822.509 271.315 823.96 270.206C825.411 269.097 826.968 268.158 828.632 267.39C827.139 266.537 825.774 265.577 824.536 264.51C823.342 263.401 822.382 262.142 821.656 260.734C820.974 259.326 820.632 257.683 820.632 255.806C820.632 253.459 821.23 251.497 822.424 249.918C823.619 248.297 825.24 247.059 827.288 246.206C829.336 245.353 831.661 244.926 834.264 244.926ZM824.664 279.678C824.664 281.897 825.454 283.753 827.032 285.246C828.611 286.697 831.043 287.422 834.328 287.422C836.419 287.422 838.168 287.081 839.576 286.398C840.984 285.715 842.051 284.777 842.776 283.582C843.544 282.387 843.928 281.022 843.928 279.486C843.928 277.993 843.523 276.691 842.712 275.582C841.944 274.43 840.835 273.406 839.384 272.51C837.976 271.614 836.291 270.803 834.328 270.078L833.304 269.694C831.427 270.505 829.848 271.379 828.568 272.318C827.288 273.257 826.307 274.323 825.624 275.518C824.984 276.713 824.664 278.099 824.664 279.678ZM834.2 249.47C831.854 249.47 829.912 250.046 828.376 251.198C826.883 252.307 826.136 253.929 826.136 256.062C826.136 257.641 826.499 258.963 827.224 260.03C827.992 261.097 829.016 262.014 830.296 262.782C831.576 263.507 832.984 264.211 834.52 264.894C836.013 264.254 837.336 263.55 838.488 262.782C839.683 262.014 840.622 261.097 841.304 260.03C842.03 258.921 842.392 257.598 842.392 256.062C842.392 253.929 841.645 252.307 840.152 251.198C838.659 250.046 836.675 249.47 834.2 249.47Z" fill="white"/>
<g filter="url(#filter1_d_1287_1460)">
<path d="M601 0L601 321" stroke="white" stroke-width="3"/>
</g>
</g>
<defs>
<filter id="filter0_i_1287_1460" x="0" y="0" width="1202.76" height="325" filterUnits="userSpaceOnUse" color-interpolation-filters="sRGB">
<feFlood flood-opacity="0" result="BackgroundImageFix"/>
<feBlend mode="normal" in="SourceGraphic" in2="BackgroundImageFix" result="shape"/>
<feColorMatrix in="SourceAlpha" type="matrix" values="0 0 0 0 0 0 0 0 0 0 0 0 0 0 0 0 0 0 127 0" result="hardAlpha"/>
<feOffset dy="4"/>
<feGaussianBlur stdDeviation="2"/>
<feComposite in2="hardAlpha" operator="arithmetic" k2="-1" k3="1"/>
<feColorMatrix type="matrix" values="0 0 0 0 0 0 0 0 0 0 0 0 0 0 0 0 0 0 0.25 0"/>
<feBlend mode="normal" in2="shape" result="effect1_innerShadow_1287_1460"/>
</filter>
<filter id="filter1_d_1287_1460" x="595.5" y="0" width="11" height="329" filterUnits="userSpaceOnUse" color-interpolation-filters="sRGB">
<feFlood flood-opacity="0" result="BackgroundImageFix"/>
<feColorMatrix in="SourceAlpha" type="matrix" values="0 0 0 0 0 0 0 0 0 0 0 0 0 0 0 0 0 0 127 0" result="hardAlpha"/>
<feOffset dy="4"/>
<feGaussianBlur stdDeviation="2"/>
<feComposite in2="hardAlpha" operator="out"/>
<feColorMatrix type="matrix" values="0 0 0 0 0 0 0 0 0 0 0 0 0 0 0 0 0 0 0.25 0"/>
<feBlend mode="normal" in2="BackgroundImageFix" result="effect1_dropShadow_1287_1460"/>
<feBlend mode="normal" in="SourceGraphic" in2="effect1_dropShadow_1287_1460" result="shape"/>
</filter>
</defs>
</svg>
