<svg width="248" height="64" viewBox="0 0 248 64" fill="none" xmlns="http://www.w3.org/2000/svg">
<path d="M11.4655 3.50905L9.07674 12.6235L7.92385 12.6253L6.15083 6.65632C6.09979 6.47776 6.04876 6.29493 5.99771 6.10787C5.94665 5.9208 5.89984 5.74224 5.85726 5.57217C5.8147 5.4021 5.77639 5.25753 5.74236 5.1385C5.71677 5.01092 5.69969 4.91737 5.69113 4.85784C5.6828 4.91741 5.66609 5.011 5.64101 5.13864C5.62436 5.25777 5.59509 5.40244 5.5532 5.57263C5.51131 5.74283 5.46523 5.9258 5.41495 6.12153C5.3731 6.30874 5.3228 6.50023 5.26406 6.69597L3.56567 12.6321L2.41278 12.6339L0 3.52688L1.1909 3.52502L2.60836 9.08625C2.65943 9.28181 2.70627 9.4774 2.74891 9.67299C2.79151 9.86007 2.82989 10.0472 2.86406 10.2343C2.90664 10.4128 2.94076 10.5872 2.96646 10.7573C2.99213 10.9274 3.01781 11.0932 3.04346 11.2548C3.06846 11.0846 3.09345 10.9102 3.11843 10.7315C3.15186 10.5528 3.18949 10.3699 3.23134 10.1827C3.27319 9.98693 3.31925 9.7912 3.36953 9.59547C3.41982 9.39973 3.4701 9.20826 3.5204 9.02103L5.10566 3.51894L6.28389 3.51711L7.95467 9.05241C8.0142 9.24798 8.06949 9.44779 8.12058 9.65188C8.17165 9.84747 8.21849 10.0388 8.26109 10.2259C8.30371 10.413 8.33785 10.5958 8.36355 10.7744C8.39767 10.9445 8.42755 11.1018 8.45318 11.2464C8.47808 11.0337 8.51144 10.8125 8.55321 10.5827C8.59496 10.3445 8.64514 10.0977 8.70373 9.84238C8.76235 9.58708 8.82518 9.32753 8.89221 9.06372L10.2746 3.51091L11.4655 3.50905ZM21.5203 8.03605C21.5217 8.7421 21.4344 9.38449 21.258 9.96323C21.0818 10.5335 20.8168 11.0273 20.463 11.4446C20.1174 11.862 19.6831 12.1817 19.1599 12.4037C18.6452 12.6256 18.0457 12.7372 17.3616 12.7382C16.6521 12.7393 16.0354 12.6297 15.5113 12.4093C14.9871 12.1805 14.5515 11.8622 14.2044 11.4544C13.8573 11.0381 13.5987 10.5408 13.4286 9.96265C13.2585 9.38443 13.1727 8.74232 13.1713 8.03625C13.1694 7.10051 13.3198 6.28362 13.6225 5.58561C13.9252 4.88759 14.3844 4.34243 15.0001 3.95018C15.6244 3.55788 16.4095 3.36102 17.3554 3.35954C18.2591 3.35815 19.0197 3.55262 19.637 3.94296C20.2544 4.3248 20.72 4.86851 21.0339 5.57408C21.3562 6.27114 21.5183 7.0918 21.5203 8.03605ZM14.3749 8.04715C14.3765 8.81276 14.4834 9.47186 14.6956 10.0245C14.9079 10.5771 15.2339 11.0019 15.6737 11.299C16.122 11.596 16.6839 11.744 17.3596 11.7429C18.0437 11.7419 18.6009 11.5922 19.031 11.2937C19.4697 10.9953 19.794 10.5695 20.004 10.0162C20.214 9.46295 20.3183 8.80351 20.3168 8.0379C20.3144 6.88951 20.076 5.99241 19.6019 5.34663C19.1276 4.69236 18.3794 4.366 17.3574 4.36759C16.6733 4.36865 16.1077 4.5184 15.6607 4.81683C15.2221 5.10674 14.8977 5.52832 14.6877 6.08159C14.4776 6.62635 14.3734 7.28155 14.3749 8.04715ZM26.8988 3.48507C27.6504 3.48389 28.2672 3.58077 28.749 3.77568C29.2392 3.96206 29.603 4.24647 29.8402 4.62891C30.0775 5.01134 30.1967 5.4918 30.1979 6.07025C30.1989 6.55514 30.111 6.95933 29.9342 7.28288C29.7576 7.60641 29.53 7.86622 29.2517 8.06231C28.9818 8.24988 28.695 8.39919 28.3911 8.51025L30.8824 12.5896L29.5522 12.5917L27.3529 8.83086L25.5539 8.83365L25.5614 12.5979L24.4212 12.5997L24.4029 3.48896L26.8988 3.48507ZM26.8374 4.48046L25.5451 4.48247L25.5519 7.86388L26.9075 7.86179C27.3974 7.86101 27.7985 7.7966 28.1106 7.66852C28.423 7.53192 28.6507 7.33591 28.7936 7.08049C28.9452 6.82505 29.0204 6.50593 29.0199 6.12313C29.0189 5.72331 28.9381 5.40443 28.7772 5.16649C28.6245 4.92854 28.3878 4.75452 28.0667 4.64443C27.7454 4.53433 27.3356 4.47968 26.8374 4.48046ZM39.8025 12.5758L38.4595 12.5778L35.2455 8.23164L34.3223 9.04972L34.3294 12.5843L33.1892 12.586L33.1708 3.47532L34.311 3.47355L34.3201 7.96511C34.5729 7.67547 34.8298 7.38586 35.0911 7.09622C35.3524 6.80657 35.6135 6.51693 35.8748 6.2273L38.3144 3.46732L39.6447 3.46525L36.0673 7.43921L39.8025 12.5758ZM47.046 10.1273C47.047 10.6717 46.9172 11.1356 46.6561 11.5188C46.395 11.8935 46.0196 12.1833 45.5303 12.3882C45.0493 12.5931 44.4794 12.6961 43.8206 12.6971C43.4827 12.6976 43.1574 12.6811 42.8448 12.6476C42.5408 12.614 42.2621 12.5677 42.0085 12.5085C41.7549 12.4409 41.531 12.3604 41.3366 12.2671L41.3342 11.1698C41.6387 11.3054 42.0148 11.4281 42.4626 11.538C42.9189 11.6479 43.3878 11.7025 43.8693 11.7017C44.3168 11.7011 44.6926 11.6409 44.9964 11.5214C45.3003 11.4018 45.5279 11.2313 45.6796 11.0099C45.8312 10.7885 45.9066 10.5289 45.906 10.2312C45.9054 9.93342 45.8415 9.68258 45.7144 9.4786C45.5873 9.27464 45.3674 9.08784 45.0546 8.91819C44.7502 8.74003 44.3232 8.55353 43.7738 8.35874C43.3851 8.21473 43.0426 8.06213 42.7467 7.90097C42.4592 7.73128 42.2181 7.54026 42.0233 7.32788C41.8287 7.11552 41.6805 6.8733 41.5785 6.60125C41.4851 6.32918 41.438 6.0145 41.4372 5.65722C41.4364 5.17234 41.5579 4.75957 41.8022 4.41891C42.0465 4.06976 42.3838 3.80126 42.8142 3.61345C43.2528 3.42561 43.7552 3.33127 44.3212 3.33039C44.8194 3.32962 45.2757 3.37569 45.6897 3.46862C46.1038 3.56155 46.4799 3.68431 46.818 3.83691L46.4652 4.82C46.1525 4.68436 45.8102 4.57006 45.4382 4.47707C45.075 4.38406 44.6947 4.33786 44.2978 4.33848C43.9178 4.33906 43.6012 4.39485 43.348 4.50584C43.0949 4.61681 42.905 4.77448 42.7789 4.97884C42.6526 5.17469 42.5897 5.40447 42.5903 5.66819C42.5909 5.97443 42.6546 6.22953 42.7817 6.4335C42.9088 6.63746 43.1162 6.82003 43.4037 6.9812C43.6911 7.1424 44.0801 7.31618 44.5702 7.50257C45.1027 7.69739 45.5509 7.90936 45.9145 8.13849C46.2865 8.35908 46.5658 8.6266 46.7523 8.94108C46.9471 9.25552 47.0451 9.65092 47.046 10.1273ZM56.6774 12.5495L55.5371 12.5513L55.5284 8.30218L50.8915 8.30939L50.9002 12.5585L49.76 12.5603L49.7416 3.44956L50.8818 3.44779L50.8895 7.30134L55.5264 7.29413L55.5187 3.44059L56.6589 3.43881L56.6774 12.5495ZM67.921 7.96391C67.9224 8.66997 67.8349 9.31238 67.6587 9.89111C67.4825 10.4613 67.2175 10.9551 66.8635 11.3725C66.5181 11.7899 66.0838 12.1096 65.5606 12.3315C65.0459 12.5535 64.4463 12.665 63.7622 12.6661C63.0527 12.6672 62.4361 12.5576 61.9119 12.3372C61.3877 12.1084 60.9522 11.79 60.605 11.3823C60.258 10.966 59.9992 10.4687 59.8292 9.89051C59.6591 9.31232 59.5734 8.67019 59.572 7.96413C59.5701 7.0284 59.7205 6.21151 60.0232 5.51349C60.3259 4.81545 60.7849 4.27032 61.4008 3.87804C62.0249 3.48577 62.81 3.28888 63.756 3.28743C64.6597 3.28601 65.4202 3.48048 66.0377 3.87084C66.6551 4.25269 67.1207 4.79639 67.4346 5.50197C67.7569 6.19901 67.919 7.01966 67.921 7.96391ZM60.7756 7.97502C60.777 8.74063 60.8839 9.39972 61.0963 9.95234C61.3085 10.505 61.6345 10.9298 62.0744 11.2268C62.5226 11.5239 63.0846 11.6719 63.7602 11.6708C64.4443 11.6698 65.0016 11.52 65.4317 11.2216C65.8702 10.9232 66.1946 10.4974 66.4047 9.94408C66.6147 9.39083 66.7188 8.73139 66.7174 7.96579C66.7151 6.81738 66.4767 5.92028 66.0024 5.27452C65.5281 4.62022 64.7801 4.29388 63.758 4.29546C63.0739 4.29653 62.5083 4.44629 62.0613 4.74471C61.6227 5.03463 61.2984 5.45621 61.0884 6.00948C60.8784 6.55424 60.774 7.20941 60.7756 7.97502ZM73.1979 3.41309C74.3805 3.41126 75.2424 3.64385 75.784 4.11089C76.3254 4.57791 76.597 5.23678 76.5988 6.08746C76.5994 6.46175 76.5368 6.82338 76.4109 7.17235C76.2933 7.5128 76.0954 7.81936 75.8172 8.09201C75.5391 8.36466 75.1679 8.58216 74.7037 8.74449C74.2395 8.89835 73.6694 8.97579 72.9938 8.97685L71.9549 8.97846L71.9621 12.5258L70.8218 12.5275L70.8034 3.41682L73.1979 3.41309ZM73.0985 4.39578L71.9456 4.39758L71.953 7.99593L72.8651 7.99452C73.4394 7.99362 73.9165 7.93333 74.2963 7.81364C74.6762 7.68544 74.9587 7.48511 75.144 7.2126C75.3293 6.94009 75.4215 6.58267 75.4205 6.14031C75.4193 5.55335 75.2327 5.11555 74.8605 4.8269C74.4884 4.53824 73.901 4.39455 73.0985 4.39578Z" fill="white"/>
<path d="M69.1752 31.5343C69.7074 31.5343 70.1761 31.6194 70.5815 31.7895C70.9869 31.9512 71.3037 32.1936 71.5317 32.5168C71.7683 32.84 71.8864 33.2399 71.8864 33.7162C71.8864 34.0821 71.8063 34.4011 71.6457 34.6732C71.4937 34.9454 71.2868 35.1878 71.0249 35.4006C70.7631 35.6047 70.476 35.7876 70.1634 35.9493C70.535 36.1279 70.8729 36.3321 71.177 36.5617C71.481 36.7829 71.7217 37.0424 71.8991 37.3401C72.085 37.6378 72.1778 37.9951 72.1778 38.412C72.1778 38.9224 72.0553 39.3648 71.8104 39.739C71.5656 40.1049 71.2191 40.3898 70.7716 40.5939C70.3323 40.7981 69.8129 40.9002 69.2133 40.9002C68.563 40.9002 68.0097 40.8023 67.5536 40.6067C67.106 40.4111 66.764 40.1346 66.5274 39.7773C66.2994 39.4114 66.1853 38.9692 66.1853 38.4502C66.1853 38.0333 66.2699 37.6719 66.4387 37.3656C66.6161 37.0594 66.8483 36.7956 67.1355 36.5745C67.4228 36.3534 67.731 36.1662 68.0604 36.0131C67.7648 35.843 67.4944 35.6516 67.2495 35.4389C67.013 35.2177 66.8229 34.9667 66.6794 34.686C66.5442 34.4053 66.4767 34.0777 66.4767 33.7035C66.4767 33.2355 66.5949 32.8444 66.8315 32.5295C67.068 32.2064 67.3889 31.9595 67.7943 31.7895C68.1997 31.6194 68.66 31.5343 69.1752 31.5343ZM67.2749 38.463C67.2749 38.9054 67.4311 39.2755 67.7436 39.5731C68.0562 39.8624 68.5376 40.007 69.1879 40.007C69.6018 40.007 69.9481 39.939 70.2268 39.8028C70.5055 39.6666 70.7167 39.4796 70.8602 39.2414C71.0123 39.0031 71.0883 38.731 71.0883 38.4247C71.0883 38.1271 71.0081 37.8675 70.8476 37.6464C70.6955 37.4167 70.476 37.2125 70.1888 37.0339C69.91 36.8552 69.5765 36.6935 69.1879 36.549L68.9852 36.4724C68.6137 36.6341 68.3011 36.8084 68.0477 36.9956C67.7943 37.1828 67.6001 37.3953 67.4649 37.6336C67.3382 37.8718 67.2749 38.1482 67.2749 38.463ZM69.1626 32.4402C68.698 32.4402 68.3138 32.5551 68.0097 32.7847C67.7141 33.0059 67.5663 33.3292 67.5663 33.7545C67.5663 34.0693 67.6381 34.3329 67.7816 34.5456C67.9337 34.7584 68.1364 34.9412 68.3898 35.0943C68.6431 35.2389 68.9219 35.3792 69.2259 35.5154C69.5215 35.3878 69.7834 35.2475 70.0114 35.0943C70.248 34.9412 70.4337 34.7584 70.5689 34.5456C70.7124 34.3245 70.7842 34.0608 70.7842 33.7545C70.7842 33.3292 70.6364 33.0059 70.3408 32.7847C70.0453 32.5551 69.6525 32.4402 69.1626 32.4402ZM74.6137 40.0835C74.6137 39.7687 74.6897 39.5476 74.8417 39.42C74.9937 39.2924 75.1753 39.2286 75.3865 39.2286C75.606 39.2286 75.7919 39.2924 75.9439 39.42C76.1045 39.5476 76.1846 39.7687 76.1846 40.0835C76.1846 40.3898 76.1045 40.6109 75.9439 40.7471C75.7919 40.8832 75.606 40.9512 75.3865 40.9512C75.1753 40.9512 74.9937 40.8832 74.8417 40.7471C74.6897 40.6109 74.6137 40.3898 74.6137 40.0835ZM82.4759 40.7726H81.3863V34.4053C81.3863 34.1587 81.3863 33.9501 81.3863 33.78C81.3948 33.61 81.4031 33.4525 81.4116 33.3079C81.4202 33.1548 81.4285 32.9975 81.437 32.8358C81.3018 32.972 81.1794 33.0868 81.0696 33.1803C80.9597 33.2738 80.8204 33.393 80.6515 33.5376L79.6886 34.3287L79.1059 33.5759L81.551 31.6619H82.4759V40.7726ZM93.1086 38.7054H91.791V40.7726H90.7142V38.7054H86.3813V37.7484L90.6381 31.6108H91.791V37.6974H93.1086V38.7054ZM90.7142 34.8264C90.7142 34.6053 90.7142 34.4053 90.7142 34.2266C90.7227 34.0394 90.731 33.8652 90.7395 33.7035C90.748 33.5418 90.7522 33.3887 90.7522 33.2441C90.7607 33.091 90.769 32.9464 90.7775 32.8103H90.7268C90.6593 32.972 90.5748 33.1462 90.4734 33.3334C90.3721 33.5206 90.2749 33.678 90.1821 33.8056L87.4709 37.6974H90.7142V34.8264Z" fill="white"/>
<path d="M3.45414 31.5343C3.98624 31.5343 4.455 31.6194 4.86041 31.7895C5.26583 31.9512 5.58255 32.1936 5.8106 32.5168C6.0471 32.84 6.16534 33.2399 6.16534 33.7162C6.16534 34.0821 6.0851 34.4011 5.92462 34.6732C5.77259 34.9454 5.56567 35.1878 5.30383 35.4006C5.042 35.6047 4.75485 35.7876 4.44233 35.9493C4.81395 36.1279 5.1518 36.3321 5.45586 36.5617C5.75992 36.7829 6.00064 37.0424 6.178 37.3401C6.36382 37.6378 6.45673 37.9951 6.45673 38.412C6.45673 38.9224 6.33425 39.3648 6.08932 39.739C5.84439 40.1049 5.49809 40.3898 5.05045 40.5939C4.61125 40.7981 4.09181 40.9002 3.49215 40.9002C2.84181 40.9002 2.28858 40.8023 1.83249 40.6067C1.38486 40.4111 1.04279 40.1346 0.806293 39.7773C0.578249 39.4114 0.464227 38.9692 0.464227 38.4502C0.464227 38.0333 0.548688 37.6719 0.717609 37.3656C0.894977 37.0594 1.12724 36.7956 1.41441 36.5745C1.70158 36.3534 2.00986 36.1662 2.33926 36.0131C2.04365 35.843 1.77336 35.6516 1.52843 35.4389C1.29194 35.2177 1.1019 34.9667 0.958323 34.686C0.823185 34.4053 0.755616 34.0777 0.755616 33.7035C0.755616 33.2355 0.873861 32.8444 1.11035 32.5295C1.34685 32.2064 1.66779 31.9595 2.07321 31.7895C2.47862 31.6194 2.93892 31.5343 3.45414 31.5343ZM1.55377 38.463C1.55377 38.9054 1.71002 39.2755 2.02253 39.5731C2.33504 39.8624 2.81647 40.007 3.46681 40.007C3.88068 40.007 4.22696 39.939 4.50568 39.8028C4.7844 39.6666 4.99556 39.4796 5.13914 39.2414C5.29116 39.0031 5.36718 38.731 5.36718 38.4247C5.36718 38.1271 5.28695 37.8675 5.12647 37.6464C4.97444 37.4167 4.75485 37.2125 4.46767 37.0339C4.18895 36.8552 3.85534 36.6935 3.46681 36.549L3.2641 36.4724C2.89248 36.6341 2.57997 36.8084 2.32659 36.9956C2.07321 37.1828 1.87895 37.3953 1.74381 37.6336C1.61712 37.8718 1.55377 38.1482 1.55377 38.463ZM3.44147 32.4402C2.97693 32.4402 2.59264 32.5551 2.28858 32.7847C1.99297 33.0059 1.84516 33.3292 1.84516 33.7545C1.84516 34.0693 1.91696 34.3329 2.06054 34.5456C2.21257 34.7584 2.41527 34.9412 2.66865 35.0943C2.92204 35.2389 3.20076 35.3792 3.50482 35.5154C3.80042 35.3878 4.06226 35.2475 4.2903 35.0943C4.5268 34.9412 4.7126 34.7584 4.84775 34.5456C4.99132 34.3245 5.06312 34.0608 5.06312 33.7545C5.06312 33.3292 4.91531 33.0059 4.6197 32.7847C4.32409 32.5551 3.93135 32.4402 3.44147 32.4402ZM8.89256 40.0835C8.89256 39.7687 8.96858 39.5476 9.12061 39.42C9.27264 39.2924 9.45422 39.2286 9.66538 39.2286C9.88497 39.2286 10.0708 39.2924 10.2228 39.42C10.3833 39.5476 10.4635 39.7687 10.4635 40.0835C10.4635 40.3898 10.3833 40.6109 10.2228 40.7471C10.0708 40.8832 9.88497 40.9512 9.66538 40.9512C9.45422 40.9512 9.27264 40.8832 9.12061 40.7471C8.96858 40.6109 8.89256 40.3898 8.89256 40.0835ZM16.7547 40.7726H15.6652V34.4053C15.6652 34.1587 15.6652 33.9501 15.6652 33.78C15.6737 33.61 15.6821 33.4525 15.6905 33.3079C15.699 33.1548 15.7074 32.9975 15.7159 32.8358C15.5807 32.972 15.4583 33.0868 15.3485 33.1803C15.2387 33.2738 15.0993 33.393 14.9304 33.5376L13.9675 34.3287L13.3848 33.5759L15.8299 31.6619H16.7547V40.7726ZM26.64 33.7928C26.64 34.2011 26.564 34.5542 26.412 34.8519C26.26 35.1496 26.0404 35.392 25.7532 35.5792C25.4745 35.7664 25.1451 35.8982 24.765 35.9748V36.0258C25.4913 36.111 26.0319 36.3406 26.3867 36.7149C26.7414 37.0891 26.9188 37.5784 26.9188 38.1823C26.9188 38.7096 26.7962 39.1818 26.5513 39.5987C26.3065 40.007 25.9264 40.326 25.4111 40.5557C24.9044 40.7853 24.2497 40.9002 23.4474 40.9002C22.9745 40.9002 22.5352 40.8619 22.1298 40.7853C21.7244 40.7174 21.3358 40.5898 20.9643 40.4025V39.3562C21.3443 39.5434 21.7539 39.6922 22.1932 39.8028C22.6324 39.9049 23.0547 39.9559 23.4601 39.9559C24.2709 39.9559 24.8537 39.7986 25.2084 39.4838C25.5717 39.1606 25.7532 38.7182 25.7532 38.1568C25.7532 37.774 25.6518 37.4677 25.4491 37.238C25.2549 36.9998 24.9677 36.8255 24.5876 36.7149C24.2076 36.6042 23.7515 36.549 23.2194 36.549H22.3452V35.592H23.232C23.7303 35.592 24.1442 35.5196 24.4736 35.375C24.8115 35.2305 25.0649 35.0305 25.2338 34.7753C25.4111 34.5116 25.4998 34.2097 25.4998 33.8694C25.4998 33.4269 25.3519 33.0868 25.0564 32.8485C24.7608 32.6019 24.3596 32.4785 23.8528 32.4785C23.5319 32.4785 23.2405 32.5126 22.9787 32.5806C22.7168 32.6402 22.4719 32.7295 22.2438 32.8485C22.0243 32.9592 21.8004 33.091 21.5724 33.2441L21.0149 32.4785C21.2345 32.3084 21.4837 32.1509 21.7624 32.0064C22.0497 31.8618 22.3664 31.747 22.7126 31.6619C23.0588 31.5767 23.4347 31.5343 23.8402 31.5343C24.7862 31.5343 25.4871 31.747 25.9432 32.1723C26.4078 32.5975 26.64 33.1378 26.64 33.7928Z" fill="white"/>
<path d="M41.414 35.4891H52.8954V36.0872H41.414V35.4891Z" fill="#D9D9D9"/>
<path d="M3.45414 52.238C3.98624 52.238 4.455 52.3229 4.86041 52.4932C5.26583 52.6547 5.58255 52.8971 5.8106 53.2205C6.0471 53.5437 6.16534 53.9434 6.16534 54.4199C6.16534 54.7856 6.0851 55.1046 5.92462 55.3769C5.77259 55.6491 5.56567 55.8915 5.30383 56.1043C5.042 56.3084 4.75485 56.4913 4.44233 56.653C4.81395 56.8316 5.1518 57.0358 5.45586 57.2654C5.75992 57.4865 6.00064 57.7459 6.178 58.0438C6.36382 58.3415 6.45673 58.6988 6.45673 59.1157C6.45673 59.6261 6.33425 60.0683 6.08932 60.4427C5.84439 60.8084 5.49809 61.0935 5.05045 61.2976C4.61125 61.5018 4.09181 61.6039 3.49215 61.6039C2.84181 61.6039 2.28858 61.506 1.83249 61.3104C1.38486 61.1146 1.04279 60.8383 0.806293 60.481C0.578249 60.1151 0.464227 59.6727 0.464227 59.1539C0.464227 58.737 0.548688 58.3756 0.717609 58.0693C0.894977 57.7631 1.12724 57.4993 1.41441 57.2782C1.70158 57.0569 2.00986 56.8699 2.33926 56.7168C2.04365 56.5465 1.77336 56.3551 1.52843 56.1426C1.29194 55.9212 1.1019 55.6704 0.958323 55.3897C0.823185 55.109 0.755616 54.7814 0.755616 54.4072C0.755616 53.9392 0.873861 53.5479 1.11035 53.2332C1.34685 52.9099 1.66779 52.6632 2.07321 52.4932C2.47862 52.3229 2.93892 52.238 3.45414 52.238ZM1.55377 59.1667C1.55377 59.6089 1.71002 59.979 2.02253 60.2768C2.33504 60.5659 2.81647 60.7107 3.46681 60.7107C3.88068 60.7107 4.22696 60.6425 4.50568 60.5065C4.7844 60.3703 4.99556 60.1831 5.13914 59.9451C5.29116 59.7068 5.36718 59.4347 5.36718 59.1284C5.36718 58.8306 5.28695 58.5712 5.12647 58.3501C4.97444 58.1204 4.75485 57.9162 4.46767 57.7376C4.18895 57.5589 3.85534 57.3972 3.46681 57.2527L3.2641 57.1761C2.89248 57.3376 2.57997 57.5121 2.32659 57.6993C2.07321 57.8863 1.87895 58.099 1.74381 58.3373C1.61712 58.5753 1.55377 58.8519 1.55377 59.1667ZM3.44147 53.1439C2.97693 53.1439 2.59264 53.2588 2.28858 53.4884C1.99297 53.7096 1.84516 54.0327 1.84516 54.4582C1.84516 54.7728 1.91696 55.0366 2.06054 55.2493C2.21257 55.4619 2.41527 55.6449 2.66865 55.798C2.92204 55.9426 3.20076 56.0829 3.50482 56.2191C3.80042 56.0915 4.06226 55.9512 4.2903 55.798C4.5268 55.6449 4.7126 55.4619 4.84775 55.2493C4.99132 55.028 5.06312 54.7645 5.06312 54.4582C5.06312 54.0327 4.91531 53.7096 4.6197 53.4884C4.32409 53.2588 3.93135 53.1439 3.44147 53.1439ZM8.89256 60.7872C8.89256 60.4724 8.96858 60.2513 9.12061 60.1237C9.27264 59.9961 9.45422 59.9323 9.66538 59.9323C9.88497 59.9323 10.0708 59.9961 10.2228 60.1237C10.3833 60.2513 10.4635 60.4724 10.4635 60.7872C10.4635 61.0935 10.3833 61.3146 10.2228 61.4508C10.0708 61.5867 9.88497 61.6549 9.66538 61.6549C9.45422 61.6549 9.27264 61.5867 9.12061 61.4508C8.96858 61.3146 8.89256 61.0935 8.89256 60.7872ZM18.8452 61.4763H12.8653V60.5448L15.2345 58.1331C15.6905 57.6738 16.0748 57.2654 16.3873 56.9082C16.6999 56.5509 16.9363 56.202 17.0968 55.8618C17.2573 55.5129 17.3375 55.1345 17.3375 54.7262C17.3375 54.2241 17.1897 53.8457 16.8941 53.5905C16.5985 53.3268 16.2142 53.195 15.7412 53.195C15.302 53.195 14.9135 53.2715 14.5757 53.4246C14.2463 53.5778 13.9084 53.7903 13.5621 54.0626L12.9667 53.3098C13.2032 53.1056 13.4608 52.9226 13.7395 52.7611C14.0267 52.5994 14.3349 52.4718 14.6643 52.3783C15.0022 52.2846 15.3611 52.238 15.7412 52.238C16.3071 52.238 16.7928 52.3356 17.1982 52.5314C17.6036 52.727 17.9161 53.0077 18.1357 53.3736C18.3637 53.7309 18.4777 54.1603 18.4777 54.6624C18.4777 55.0197 18.4229 55.3598 18.313 55.6832C18.2032 55.9978 18.047 56.3084 17.8443 56.6147C17.6416 56.9209 17.3967 57.2314 17.1095 57.5462C16.8223 57.8608 16.5056 58.1884 16.1593 58.5287L14.2716 60.4044V60.4555H18.8452V61.4763ZM21.091 57.5844C21.091 57.0569 21.1248 56.5381 21.1923 56.0277C21.2683 55.5173 21.395 55.0366 21.5724 54.5858C21.7497 54.1265 21.9946 53.7223 22.3072 53.3736C22.6198 53.0163 23.0125 52.7398 23.4854 52.5442C23.9668 52.34 24.5496 52.238 25.2338 52.238C25.4111 52.238 25.6053 52.2463 25.8165 52.2635C26.0361 52.2804 26.2134 52.3101 26.3486 52.3528V53.3098C26.1966 53.2588 26.0234 53.2205 25.8292 53.195C25.6433 53.1694 25.4533 53.1567 25.2591 53.1567C24.6763 53.1567 24.1907 53.2544 23.8021 53.4502C23.4136 53.6458 23.1053 53.9137 22.8773 54.2541C22.6578 54.5942 22.4972 54.9856 22.3959 55.428C22.2945 55.8702 22.2312 56.3423 22.2058 56.8444H22.2819C22.4085 56.6402 22.5691 56.4572 22.7633 56.2957C22.9575 56.134 23.1899 56.0064 23.4601 55.9129C23.7388 55.8192 24.0597 55.7725 24.4229 55.7725C24.9465 55.7725 25.4026 55.883 25.7912 56.1043C26.1881 56.3168 26.4965 56.6316 26.716 57.0485C26.9356 57.4568 27.0454 57.9545 27.0454 58.5415C27.0454 59.1709 26.9273 59.7154 26.6907 60.1748C26.4542 60.6341 26.1206 60.987 25.6898 61.2338C25.2676 61.4805 24.7608 61.6039 24.1696 61.6039C23.7388 61.6039 23.3375 61.5229 22.966 61.3614C22.5944 61.1997 22.265 60.9531 21.9778 60.6214C21.6991 60.2896 21.4795 59.8727 21.319 59.3709C21.167 58.8605 21.091 58.2649 21.091 57.5844ZM24.1569 60.6596C24.689 60.6596 25.1197 60.4894 25.4491 60.1492C25.7785 59.8003 25.9432 59.2644 25.9432 58.5415C25.9432 57.9629 25.7954 57.5035 25.4998 57.1634C25.2126 56.823 24.7777 56.653 24.1949 56.653C23.798 56.653 23.4516 56.7379 23.156 56.9082C22.8605 57.0697 22.6281 57.2782 22.4592 57.5334C22.2987 57.7886 22.2185 58.0522 22.2185 58.3245C22.2185 58.6053 22.2565 58.8816 22.3325 59.1539C22.4171 59.4261 22.5394 59.6771 22.6999 59.9068C22.8688 60.1365 23.0715 60.3193 23.3081 60.4555C23.5529 60.5914 23.836 60.6596 24.1569 60.6596Z" fill="white"/>
<path d="M69.1752 52.238C69.7074 52.238 70.1761 52.3229 70.5815 52.4932C70.9869 52.6547 71.3037 52.8971 71.5317 53.2205C71.7683 53.5437 71.8864 53.9434 71.8864 54.4199C71.8864 54.7856 71.8063 55.1046 71.6457 55.3769C71.4937 55.6491 71.2868 55.8915 71.0249 56.1043C70.7631 56.3084 70.476 56.4913 70.1634 56.653C70.535 56.8316 70.8729 57.0358 71.177 57.2654C71.481 57.4865 71.7217 57.7459 71.8991 58.0438C72.085 58.3415 72.1778 58.6988 72.1778 59.1157C72.1778 59.6261 72.0553 60.0683 71.8104 60.4427C71.5656 60.8084 71.2191 61.0935 70.7716 61.2976C70.3323 61.5018 69.8129 61.6039 69.2133 61.6039C68.563 61.6039 68.0097 61.506 67.5536 61.3104C67.106 61.1146 66.764 60.8383 66.5274 60.481C66.2994 60.1151 66.1853 59.6727 66.1853 59.1539C66.1853 58.737 66.2699 58.3756 66.4387 58.0693C66.6161 57.7631 66.8483 57.4993 67.1355 57.2782C67.4228 57.0569 67.731 56.8699 68.0604 56.7168C67.7648 56.5465 67.4944 56.3551 67.2495 56.1426C67.013 55.9212 66.8229 55.6704 66.6794 55.3897C66.5442 55.109 66.4767 54.7814 66.4767 54.4072C66.4767 53.9392 66.5949 53.5479 66.8315 53.2332C67.068 52.9099 67.3889 52.6632 67.7943 52.4932C68.1997 52.3229 68.66 52.238 69.1752 52.238ZM67.2749 59.1667C67.2749 59.6089 67.4311 59.979 67.7436 60.2768C68.0562 60.5659 68.5376 60.7107 69.1879 60.7107C69.6018 60.7107 69.9481 60.6425 70.2268 60.5065C70.5055 60.3703 70.7167 60.1831 70.8602 59.9451C71.0123 59.7068 71.0883 59.4347 71.0883 59.1284C71.0883 58.8306 71.0081 58.5712 70.8476 58.3501C70.6955 58.1204 70.476 57.9162 70.1888 57.7376C69.91 57.5589 69.5765 57.3972 69.1879 57.2527L68.9852 57.1761C68.6137 57.3376 68.3011 57.5121 68.0477 57.6993C67.7943 57.8863 67.6001 58.099 67.4649 58.3373C67.3382 58.5753 67.2749 58.8519 67.2749 59.1667ZM69.1626 53.1439C68.698 53.1439 68.3138 53.2588 68.0097 53.4884C67.7141 53.7096 67.5663 54.0327 67.5663 54.4582C67.5663 54.7728 67.6381 55.0366 67.7816 55.2493C67.9337 55.4619 68.1364 55.6449 68.3898 55.798C68.6431 55.9426 68.9219 56.0829 69.2259 56.2191C69.5215 56.0915 69.7834 55.9512 70.0114 55.798C70.248 55.6449 70.4337 55.4619 70.5689 55.2493C70.7124 55.028 70.7842 54.7645 70.7842 54.4582C70.7842 54.0327 70.6364 53.7096 70.3408 53.4884C70.0453 53.2588 69.6525 53.1439 69.1626 53.1439ZM74.6137 60.7872C74.6137 60.4724 74.6897 60.2513 74.8417 60.1237C74.9937 59.9961 75.1753 59.9323 75.3865 59.9323C75.606 59.9323 75.7919 59.9961 75.9439 60.1237C76.1045 60.2513 76.1846 60.4724 76.1846 60.7872C76.1846 61.0935 76.1045 61.3146 75.9439 61.4508C75.7919 61.5867 75.606 61.6549 75.3865 61.6549C75.1753 61.6549 74.9937 61.5867 74.8417 61.4508C74.6897 61.3146 74.6137 61.0935 74.6137 60.7872ZM84.5663 61.4763H78.5864V60.5448L80.9556 58.1331C81.4116 57.6738 81.7959 57.2654 82.1085 56.9082C82.421 56.5509 82.6574 56.202 82.8179 55.8618C82.9785 55.5129 83.0586 55.1345 83.0586 54.7262C83.0586 54.2241 82.9108 53.8457 82.6152 53.5905C82.3197 53.3268 81.9352 53.195 81.4623 53.195C81.0231 53.195 80.6347 53.2715 80.2968 53.4246C79.9674 53.5778 79.6295 53.7903 79.2832 54.0626L78.6878 53.3098C78.9243 53.1056 79.1819 52.9226 79.4606 52.7611C79.7478 52.5994 80.056 52.4718 80.3854 52.3783C80.7234 52.2846 81.0823 52.238 81.4623 52.238C82.0283 52.238 82.5139 52.3356 82.9193 52.5314C83.3247 52.727 83.6373 53.0077 83.8568 53.3736C84.0848 53.7309 84.1989 54.1603 84.1989 54.6624C84.1989 55.0197 84.144 55.3598 84.0342 55.6832C83.9243 55.9978 83.7681 56.3084 83.5654 56.6147C83.3627 56.9209 83.1178 57.2314 82.8306 57.5462C82.5434 57.8608 82.2266 58.1884 81.8804 58.5287L79.9927 60.4044V60.4555H84.5663V61.4763ZM89.726 52.238C90.2581 52.238 90.7268 52.3229 91.1322 52.4932C91.5376 52.6547 91.8544 52.8971 92.0824 53.2205C92.319 53.5437 92.4372 53.9434 92.4372 54.4199C92.4372 54.7856 92.357 55.1046 92.1964 55.3769C92.0444 55.6491 91.8375 55.8915 91.5757 56.1043C91.3138 56.3084 91.0267 56.4913 90.7142 56.653C91.0857 56.8316 91.4236 57.0358 91.7277 57.2654C92.0317 57.4865 92.2725 57.7459 92.4498 58.0438C92.6357 58.3415 92.7285 58.6988 92.7285 59.1157C92.7285 59.6261 92.606 60.0683 92.3611 60.4427C92.1163 60.8084 91.7699 61.0935 91.3223 61.2976C90.883 61.5018 90.3636 61.6039 89.764 61.6039C89.1137 61.6039 88.5604 61.506 88.1043 61.3104C87.6567 61.1146 87.3147 60.8383 87.0781 60.481C86.8501 60.1151 86.736 59.6727 86.736 59.1539C86.736 58.737 86.8206 58.3756 86.9894 58.0693C87.1668 57.7631 87.399 57.4993 87.6862 57.2782C87.9735 57.0569 88.2817 56.8699 88.6111 56.7168C88.3155 56.5465 88.0451 56.3551 87.8003 56.1426C87.5637 55.9212 87.3737 55.6704 87.2301 55.3897C87.0949 55.109 87.0274 54.7814 87.0274 54.4072C87.0274 53.9392 87.1456 53.5479 87.3822 53.2332C87.6187 52.9099 87.9396 52.6632 88.345 52.4932C88.7504 52.3229 89.2107 52.238 89.726 52.238ZM87.8256 59.1667C87.8256 59.6089 87.9818 59.979 88.2943 60.2768C88.6069 60.5659 89.0883 60.7107 89.7386 60.7107C90.1526 60.7107 90.4988 60.6425 90.7775 60.5065C91.0562 60.3703 91.2674 60.1831 91.411 59.9451C91.563 59.7068 91.639 59.4347 91.639 59.1284C91.639 58.8306 91.5588 58.5712 91.3983 58.3501C91.2463 58.1204 91.0267 57.9162 90.7395 57.7376C90.4608 57.5589 90.1272 57.3972 89.7386 57.2527L89.5359 57.1761C89.1644 57.3376 88.8518 57.5121 88.5984 57.6993C88.345 57.8863 88.1508 58.099 88.0156 58.3373C87.8889 58.5753 87.8256 58.8519 87.8256 59.1667ZM89.7133 53.1439C89.2487 53.1439 88.8645 53.2588 88.5604 53.4884C88.2649 53.7096 88.117 54.0327 88.117 54.4582C88.117 54.7728 88.1888 55.0366 88.3324 55.2493C88.4844 55.4619 88.6871 55.6449 88.9405 55.798C89.1939 55.9426 89.4726 56.0829 89.7766 56.2191C90.0722 56.0915 90.3341 55.9512 90.5621 55.798C90.7987 55.6449 90.9844 55.4619 91.1196 55.2493C91.2631 55.028 91.3349 54.7645 91.3349 54.4582C91.3349 54.0327 91.1871 53.7096 90.8915 53.4884C90.596 53.2588 90.2032 53.1439 89.7133 53.1439Z" fill="white"/>
<path d="M41.414 56.2243H52.8954V56.8225H41.414V56.2243Z" fill="#D9D9D9"/>
<path d="M116.835 0H117.429V64H116.835V0Z" fill="#D9D9D9"/>
<path d="M147.269 13.2087H142.214V4.09799H147.269V5.10604H143.355V7.95155H147.041V8.94684H143.355V12.2007H147.269V13.2087ZM156.286 13.2087H154.993L152.599 9.25308L150.166 13.2087H148.963L151.965 8.46196L149.153 4.09799H150.42L152.637 7.67083L154.867 4.09799H156.07L153.27 8.43644L156.286 13.2087ZM165.368 13.2087H164.228V8.9596H159.591V13.2087H158.451V4.09799H159.591V7.95155H164.228V4.09799H165.368V13.2087ZM171.275 13.2087H168.006V12.5452L169.071 12.3028V5.01672L168.006 4.76152V4.09799H171.275V4.76152L170.211 5.01672V12.3028L171.275 12.5452V13.2087ZM176.493 4.09799C177.245 4.09799 177.874 4.17031 178.381 4.31492C178.896 4.45952 179.28 4.69772 179.533 5.02948C179.795 5.36125 179.926 5.8036 179.926 6.35654C179.926 6.71382 179.859 7.03282 179.724 7.31354C179.597 7.58575 179.403 7.81544 179.141 8.00259C178.888 8.18123 178.575 8.30459 178.203 8.37263V8.43644C178.583 8.49599 178.926 8.60656 179.229 8.7682C179.542 8.92983 179.787 9.15952 179.964 9.45725C180.142 9.75498 180.23 10.142 180.23 10.6184C180.23 11.1713 180.104 11.6435 179.85 12.0348C179.597 12.4176 179.234 12.7111 178.761 12.9152C178.296 13.1109 177.739 13.2087 177.088 13.2087H173.908V4.09799H176.493ZM176.721 7.97707C177.498 7.97707 178.03 7.85372 178.317 7.60703C178.604 7.35183 178.748 6.97753 178.748 6.48414C178.748 5.98224 178.571 5.62496 178.216 5.41229C177.87 5.19112 177.312 5.08052 176.544 5.08052H175.049V7.97707H176.721ZM175.049 8.93408V12.239H176.873C177.675 12.239 178.233 12.0816 178.545 11.7668C178.858 11.4521 179.014 11.0395 179.014 10.5291C179.014 10.2058 178.942 9.92512 178.799 9.68693C178.664 9.44873 178.431 9.26584 178.102 9.13824C177.781 9.00213 177.342 8.93408 176.784 8.93408H175.049ZM185.582 13.2087H182.313V12.5452L183.377 12.3028V5.01672L182.313 4.76152V4.09799H185.582V4.76152L184.517 5.01672V12.3028L185.582 12.5452V13.2087ZM191.078 13.2087H189.938V5.10604H187.113V4.09799H193.891V5.10604H191.078V13.2087ZM198.687 13.2087H195.42V12.5452L196.484 12.3028V5.01672L195.42 4.76152V4.09799H198.687V4.76152L197.624 5.01672V12.3028L198.687 12.5452V13.2087ZM209.215 8.6406C209.215 9.34665 209.126 9.98892 208.949 10.5674C208.771 11.1373 208.506 11.6307 208.15 12.0476C207.803 12.4644 207.37 12.7834 206.845 13.0046C206.33 13.2257 205.731 13.3363 205.046 13.3363C204.337 13.3363 203.721 13.2257 203.197 13.0046C202.672 12.7749 202.239 12.4559 201.892 12.0476C201.546 11.6307 201.289 11.1331 201.118 10.5546C200.95 9.97616 200.865 9.33389 200.865 8.62784C200.865 7.6921 201.017 6.87545 201.322 6.17789C201.625 5.48033 202.086 4.93591 202.702 4.5446C203.327 4.15328 204.113 3.95763 205.06 3.95763C205.962 3.95763 206.722 4.15328 207.34 4.5446C207.956 4.9274 208.421 5.47184 208.734 6.17789C209.054 6.87545 209.215 7.69635 209.215 8.6406ZM202.068 8.6406C202.068 9.40621 202.175 10.0655 202.385 10.6184C202.597 11.1713 202.922 11.5967 203.361 11.8944C203.808 12.1922 204.371 12.341 205.046 12.341C205.731 12.341 206.289 12.1922 206.718 11.8944C207.158 11.5967 207.483 11.1713 207.694 10.6184C207.906 10.0655 208.011 9.40621 208.011 8.6406C208.011 7.49219 207.776 6.59473 207.302 5.94821C206.829 5.2932 206.081 4.96568 205.06 4.96568C204.375 4.96568 203.808 5.11456 203.361 5.41229C202.922 5.70152 202.597 6.12261 202.385 6.67554C202.175 7.21998 202.068 7.87499 202.068 8.6406ZM219.277 13.2087H217.946L213.106 5.64197H213.057C213.065 5.79509 213.073 5.96522 213.083 6.15237C213.099 6.33953 213.112 6.54369 213.12 6.76486C213.128 6.97754 213.136 7.1987 213.146 7.42839C213.154 7.65807 213.158 7.88775 213.158 8.11743V13.2087H212.107V4.09799H213.423L218.251 11.6392H218.301C218.293 11.5371 218.285 11.3968 218.277 11.2181C218.267 11.031 218.259 10.8268 218.251 10.6057C218.243 10.376 218.233 10.142 218.226 9.90385C218.218 9.66566 218.214 9.44449 218.214 9.24032V4.09799H219.277V13.2087Z" fill="white"/>
<path d="M149.086 29.111L149.087 29.9277L150.291 29.9259C150.687 31.7374 151.376 33.5611 152.189 34.6956C152.366 34.4783 152.695 34.1333 152.897 33.9673C152.058 32.9349 151.332 31.0091 150.973 29.1082L149.086 29.111ZM144.397 28.7605L143.536 28.7617L143.541 31.4413L141.666 31.4439L141.668 32.3371L143.442 32.3348C143.066 34.0833 142.272 36.1006 141.451 37.1481C141.629 37.3904 141.858 37.7983 141.972 38.066C142.553 37.2103 143.12 35.8442 143.548 34.4272L143.561 40.399L144.423 40.3978L144.409 34.056C144.777 34.6934 145.21 35.4839 145.388 35.892L145.957 35.215C145.741 34.8579 144.749 33.3791 144.406 32.9331L144.405 32.3334L146.001 32.331L145.999 31.4378L144.403 31.4401L144.397 28.7605ZM147.794 29.2149C147.506 31.091 146.991 32.8655 146.144 34.0023C146.335 34.1808 146.665 34.5502 146.805 34.7287C147.727 33.4259 148.343 31.4471 148.693 29.3923L147.794 29.2149ZM150.355 36.2932C150.661 36.8925 150.979 37.5937 151.284 38.2568L147.548 38.7088C148.356 37.1381 149.124 35.121 149.677 33.1552L148.739 32.8886C148.237 34.9946 147.279 37.2801 146.976 37.8675C146.674 38.4803 146.459 38.9018 146.206 38.9788C146.32 39.221 146.486 39.693 146.524 39.8842C146.866 39.7051 147.385 39.6278 151.628 39.0476C151.806 39.4555 151.96 39.8253 152.061 40.1316L152.909 39.7093C152.565 38.791 151.776 37.1716 151.165 35.9602L150.355 36.2932ZM162.52 31.3757L163.445 31.3746L163.443 30.5196L166.395 30.5154L166.393 29.6605L163.441 29.6647L163.439 28.7332L162.514 28.7344L162.516 29.6659L161.11 29.6681L161.112 30.523L162.518 30.5208L162.52 31.3757ZM158.301 31.3819L159.213 31.3805L159.211 30.5256L160.643 30.5236L160.641 29.6687L159.209 29.6707L159.207 28.7392L158.295 28.7406L158.297 29.6721L155.333 29.6763L155.334 30.5312L158.299 30.527L158.301 31.3819ZM157.561 34.8409C157.598 34.4581 157.61 34.0626 157.634 33.667L160.726 33.6624L160.724 32.8075L158.697 32.8105C158.544 32.4151 158.264 31.8796 158.01 31.4589L157.148 31.6387C157.352 31.9831 157.568 32.442 157.721 32.8119L155.149 32.8154L155.151 33.6704L156.71 33.6682C156.626 36.029 156.403 38.4281 155.101 39.7572C155.317 39.8844 155.609 40.1902 155.761 40.3942C156.836 39.2697 157.288 37.572 157.487 35.696L159.172 35.6935C159.063 38.1181 158.951 39.037 158.761 39.2669C158.673 39.3819 158.572 39.4076 158.394 39.4078C158.23 39.408 157.812 39.3959 157.343 39.3584C157.483 39.5879 157.572 39.945 157.598 40.2002C158.067 40.2249 158.536 40.2243 158.814 40.1984C159.118 40.1597 159.333 40.07 159.536 39.8273C159.826 39.4569 159.95 38.3466 160.07 35.2457C160.083 35.1181 160.082 34.8373 160.082 34.8373L157.561 34.8409ZM160.988 37.8601C162.548 38.4321 164.463 39.4118 165.389 40.1635L165.933 39.3971C164.943 38.6329 163.015 37.7169 161.481 37.196L160.988 37.8601ZM162.161 35.3575C163.023 35.8029 164.077 36.4904 164.572 36.9874L165.14 36.3486C164.62 35.8388 163.567 35.1896 162.692 34.7825L162.161 35.3575ZM163.191 31.426C162.611 32.7666 161.474 34.1973 160.146 35.1179C160.362 35.258 160.654 35.5383 160.793 35.704C161.843 34.9241 162.766 33.8765 163.46 32.7271C164.159 33.6704 165.277 34.9448 166.229 35.709C166.38 35.5046 166.646 35.198 166.848 35.0445C165.782 34.306 164.525 32.9935 163.826 32.0502C163.889 31.9354 163.94 31.8076 164.003 31.68L163.191 31.426ZM174.002 33.3372L174.004 34.1539L170.596 34.1587L170.594 33.342L174.002 33.3372ZM170.549 35.6645C170.573 35.3709 170.585 35.0646 170.597 34.7967L174.005 34.7919L174.007 35.6596L170.549 35.6645ZM174.883 36.36L174.875 32.6342L169.706 32.6416L169.71 34.3642C169.713 35.7933 169.578 37.899 168.593 39.4188C168.821 39.5077 169.214 39.6985 169.392 39.8387C170.023 38.8297 170.337 37.566 170.487 36.3664L174.883 36.36ZM171.071 31.3763L171.073 32.0016L173.733 31.9978L173.732 31.3726L171.071 31.3763ZM174.341 37.6623L174.344 39.0021L171.291 39.0065L171.288 37.6667L174.341 37.6623ZM170.483 40.2837L171.294 40.2825L171.292 39.7593L174.346 39.755L174.347 40.2526L175.183 40.2514L175.176 36.9465L170.475 36.9533L170.483 40.2837ZM172.155 28.81C171.398 30.0872 169.994 31.1738 168.602 31.8521C168.767 32.0558 169.021 32.5022 169.123 32.719C170.262 32.0921 171.438 31.1843 172.298 30.1241C173.313 30.7607 174.48 31.55 175.102 32.0724L175.594 31.2932C174.972 30.7838 173.792 30.0453 172.803 29.447C172.866 29.3449 172.942 29.2426 173.005 29.1405L172.155 28.81ZM177.188 30.1171L176.301 30.1183L176.316 37.1108L177.203 37.1096L177.188 30.1171ZM178.667 28.7623L178.69 39.098C178.69 39.3149 178.614 39.3789 178.399 39.3919C178.196 39.4051 177.512 39.4061 176.752 39.3815C176.879 39.6493 177.019 40.0702 177.071 40.3254C178.097 40.3238 178.718 40.2975 179.097 40.131C179.452 39.9775 179.603 39.6838 179.602 39.0841L179.579 28.7611L178.667 28.7623ZM185.293 28.7402C184.588 30.6807 183.426 32.5836 182.175 33.8103C182.353 34.0143 182.633 34.5371 182.722 34.7538C183.151 34.3066 183.581 33.7956 183.973 33.2335L183.988 40.3282L184.926 40.3268L184.907 31.7647C185.399 30.8837 185.853 29.9516 186.193 29.0323L185.293 28.7402ZM193.801 31.7137L193.799 30.8077L188.528 30.8153C188.781 30.2535 189.02 29.6791 189.221 29.0917L188.321 28.8506C187.705 30.7144 186.682 32.5535 185.545 33.7418C185.761 33.8945 186.129 34.2131 186.281 34.3786C186.913 33.6632 187.532 32.7435 188.074 31.7221L188.948 31.7207L188.967 40.3338L189.917 40.3324L189.911 37.2444L193.699 37.239L193.697 36.3458L189.909 36.3512L189.904 34.4244L193.515 34.4192L193.513 33.5388L189.903 33.544L189.899 31.7193L193.801 31.7137ZM201.215 32.7495L201.211 31.1162L204.024 31.1122C203.428 31.6872 202.785 32.2369 202.102 32.7483L201.215 32.7495ZM204.658 36.9936L199.527 37.001L199.523 35.7377L204.654 35.7303L204.658 36.9936ZM199.531 39.0809L199.527 37.7538L204.658 37.7464L204.662 39.0735L199.531 39.0809ZM207.158 33.5958L207.156 32.7409L203.508 32.7463C204.658 31.7875 205.695 30.7142 206.58 29.5389L205.78 29.1062C205.351 29.6938 204.87 30.2561 204.339 30.7928V30.2696L201.209 30.274L201.205 28.679L200.281 28.6804L200.285 30.2754L197.054 30.28L197.056 31.1221L200.287 31.1176L200.289 32.7509L195.957 32.757L195.959 33.612L200.887 33.6048C199.293 34.6407 197.521 35.4855 195.685 36.1389C195.863 36.3301 196.168 36.7123 196.282 36.9164C197.054 36.6218 197.84 36.276 198.598 35.905L198.608 40.32L199.533 40.3186V39.9103L204.664 39.9029V40.2602L205.628 40.2588L205.616 34.9251L200.384 34.9326C201.079 34.5233 201.762 34.0757 202.419 33.6026L207.158 33.5958ZM215.607 38.3817L215.591 31.0573L220.138 31.0508L220.136 30.081L210.127 30.0954L210.129 31.0651L214.563 31.0587L214.579 38.3831L209.488 38.3904L209.49 39.3347L220.789 39.3183L220.787 38.3741L215.607 38.3817ZM225.962 28.6818C225.255 30.6223 224.095 32.5252 222.842 33.7519C223.02 33.9559 223.301 34.4787 223.39 34.6956C223.82 34.2482 224.249 33.7372 224.641 33.1753L224.655 40.2698L225.593 40.2686L225.576 31.7065C226.067 30.8253 226.522 29.8932 226.86 28.9741L225.962 28.6818ZM234.468 31.6555L234.466 30.7495L229.196 30.7571C229.448 30.1952 229.687 29.6206 229.889 29.0335L228.988 28.7922C228.373 30.6562 227.349 32.4951 226.213 33.6833C226.429 33.8363 226.797 34.1547 226.949 34.3203C227.581 33.6048 228.199 32.6853 228.743 31.6637L229.616 31.6625L229.636 40.2755L230.586 40.2741L230.578 37.1862L234.367 37.1808L234.365 36.2876L230.576 36.293L230.572 34.3662L234.183 34.361L234.181 33.4806L230.57 33.4858L230.566 31.6611L234.468 31.6555ZM245.108 30.4407C244.979 29.9687 244.7 29.1653 244.459 28.5659L243.584 28.7585C243.813 29.3836 244.069 30.2126 244.183 30.6973L245.108 30.4407ZM240.775 35.8573C240.216 36.0623 239.66 36.2673 239.128 36.4593L239.12 32.7078L240.64 32.7056L240.638 31.7996L239.118 31.8018L239.112 28.7904L238.199 28.7918L238.207 31.8032L236.598 31.8056L236.6 32.7116L238.209 32.7092L238.217 36.7797C237.52 37.0359 236.901 37.2536 236.394 37.4203L236.637 38.4024C237.839 37.9287 239.446 37.3138 240.941 36.7246L240.775 35.8573ZM243.615 31.7572L248 31.751L247.998 30.8322L240.587 30.8428L240.589 31.7615L242.691 31.7586L242.695 33.4812C242.699 35.3314 242.374 37.7817 239.668 39.6359C239.91 39.7887 240.212 40.069 240.379 40.2727C242.756 38.6488 243.411 36.5426 243.572 34.6409L246.371 34.637C246.238 37.6741 246.076 38.8354 245.824 39.1166C245.698 39.2571 245.571 39.2701 245.33 39.2705C245.076 39.2709 244.379 39.2591 243.657 39.2091C243.823 39.4641 243.938 39.8467 243.964 40.1402C244.661 40.1774 245.357 40.1764 245.726 40.1503C246.129 40.1115 246.397 40.0217 246.622 39.7151C247.014 39.2681 247.151 37.9025 247.307 34.1892C247.321 34.0614 247.319 33.7424 247.319 33.7424L243.619 33.7477V33.4925L243.615 31.7572Z" fill="white"/>
<path d="M144.596 51.5218C145.128 51.5218 145.597 51.6069 146.002 51.777C146.408 51.9387 146.725 52.1811 146.953 52.5043C147.189 52.8275 147.307 53.2275 147.307 53.7038C147.307 54.0696 147.227 54.3886 147.067 54.6608C146.915 54.9329 146.708 55.1754 146.446 55.3881C146.184 55.5923 145.897 55.7751 145.584 55.9368C145.956 56.1154 146.294 56.3196 146.598 56.5493C146.902 56.7704 147.143 57.03 147.32 57.3276C147.506 57.6253 147.599 57.9826 147.599 58.3995C147.599 58.9099 147.476 59.3523 147.231 59.7266C146.986 60.0924 146.64 60.3773 146.192 60.5815C145.753 60.7856 145.234 60.8877 144.634 60.8877C143.984 60.8877 143.431 60.7898 142.975 60.5942C142.527 60.3987 142.185 60.1221 141.948 59.7648C141.72 59.399 141.606 58.9568 141.606 58.4378C141.606 58.0209 141.691 57.6594 141.86 57.3532C142.037 57.0469 142.269 56.7831 142.556 56.562C142.844 56.3409 143.152 56.1537 143.481 56.0006C143.186 55.8305 142.915 55.6391 142.67 55.4264C142.434 55.2053 142.244 54.9543 142.1 54.6735C141.965 54.3928 141.898 54.0652 141.898 53.691C141.898 53.2231 142.016 52.8319 142.252 52.5171C142.489 52.1939 142.81 51.9471 143.215 51.777C143.621 51.6069 144.081 51.5218 144.596 51.5218ZM142.696 58.4505C142.696 58.893 142.852 59.263 143.165 59.5607C143.477 59.85 143.959 59.9945 144.609 59.9945C145.023 59.9945 145.369 59.9265 145.648 59.7904C145.926 59.6542 146.138 59.4672 146.281 59.2289C146.433 58.9907 146.509 58.7185 146.509 58.4123C146.509 58.1146 146.429 57.855 146.268 57.6339C146.116 57.4042 145.897 57.2 145.61 57.0214C145.331 56.8428 144.997 56.6811 144.609 56.5365L144.406 56.46C144.035 56.6217 143.722 56.7959 143.469 56.9831C143.215 57.1703 143.021 57.3829 142.886 57.6211C142.759 57.8594 142.696 58.1357 142.696 58.4505ZM144.583 52.4278C144.119 52.4278 143.735 52.5426 143.431 52.7723C143.135 52.9934 142.987 53.3168 142.987 53.7421C142.987 54.0569 143.059 54.3204 143.203 54.5332C143.355 54.7459 143.557 54.9287 143.811 55.0819C144.064 55.2264 144.343 55.3668 144.647 55.5029C144.942 55.3753 145.204 55.235 145.432 55.0819C145.669 54.9287 145.855 54.7459 145.99 54.5332C146.133 54.3121 146.205 54.0483 146.205 53.7421C146.205 53.3168 146.057 52.9934 145.762 52.7723C145.466 52.5426 145.073 52.4278 144.583 52.4278ZM150.035 60.0711C150.035 59.7563 150.111 59.5352 150.263 59.4076C150.415 59.2799 150.596 59.2161 150.807 59.2161C151.027 59.2161 151.213 59.2799 151.365 59.4076C151.525 59.5352 151.606 59.7563 151.606 60.0711C151.606 60.3773 151.525 60.5984 151.365 60.7346C151.213 60.8708 151.027 60.9388 150.807 60.9388C150.596 60.9388 150.415 60.8708 150.263 60.7346C150.111 60.5984 150.035 60.3773 150.035 60.0711ZM159.987 60.7601H154.007V59.8286L156.376 57.417C156.833 56.9576 157.217 56.5493 157.529 56.192C157.842 55.8347 158.078 55.486 158.239 55.1457C158.399 54.797 158.48 54.4183 158.48 54.01C158.48 53.5082 158.332 53.1296 158.036 52.8744C157.741 52.6106 157.356 52.4788 156.883 52.4788C156.444 52.4788 156.056 52.5554 155.718 52.7085C155.388 52.8616 155.05 53.0743 154.704 53.3465L154.109 52.5936C154.345 52.3895 154.603 52.2066 154.882 52.045C155.169 51.8833 155.477 51.7557 155.806 51.6622C156.144 51.5686 156.503 51.5218 156.883 51.5218C157.449 51.5218 157.935 51.6197 158.34 51.8153C158.746 52.0109 159.058 52.2916 159.278 52.6574C159.506 53.0147 159.62 53.4444 159.62 53.9462C159.62 54.3035 159.565 54.6438 159.455 54.967C159.345 55.2818 159.189 55.5923 158.986 55.8985C158.784 56.2048 158.539 56.5152 158.251 56.83C157.964 57.1448 157.648 57.4722 157.301 57.8125L155.414 59.6883V59.7393H159.987V60.7601ZM165.147 51.5218C165.679 51.5218 166.148 51.6069 166.553 51.777C166.959 51.9387 167.275 52.1811 167.503 52.5043C167.74 52.8275 167.858 53.2275 167.858 53.7038C167.858 54.0696 167.778 54.3886 167.617 54.6608C167.465 54.9329 167.258 55.1754 166.997 55.3881C166.735 55.5923 166.448 55.7751 166.135 55.9368C166.507 56.1154 166.845 56.3196 167.149 56.5493C167.453 56.7704 167.693 57.03 167.871 57.3276C168.057 57.6253 168.149 57.9826 168.149 58.3995C168.149 58.9099 168.027 59.3523 167.782 59.7266C167.537 60.0924 167.191 60.3773 166.743 60.5815C166.304 60.7856 165.784 60.8877 165.185 60.8877C164.535 60.8877 163.981 60.7898 163.525 60.5942C163.078 60.3987 162.736 60.1221 162.499 59.7648C162.271 59.399 162.157 58.9568 162.157 58.4378C162.157 58.0209 162.241 57.6594 162.41 57.3532C162.588 57.0469 162.82 56.7831 163.107 56.562C163.394 56.3409 163.703 56.1537 164.032 56.0006C163.736 55.8305 163.466 55.6391 163.221 55.4264C162.985 55.2053 162.795 54.9543 162.651 54.6735C162.516 54.3928 162.448 54.0652 162.448 53.691C162.448 53.2231 162.567 52.8319 162.803 52.5171C163.04 52.1939 163.361 51.9471 163.766 51.777C164.171 51.6069 164.632 51.5218 165.147 51.5218ZM163.247 58.4505C163.247 58.893 163.403 59.263 163.715 59.5607C164.028 59.85 164.509 59.9945 165.16 59.9945C165.573 59.9945 165.92 59.9265 166.198 59.7904C166.477 59.6542 166.688 59.4672 166.832 59.2289C166.984 58.9907 167.06 58.7185 167.06 58.4123C167.06 58.1146 166.98 57.855 166.819 57.6339C166.667 57.4042 166.448 57.2 166.16 57.0214C165.882 56.8428 165.548 56.6811 165.16 56.5365L164.957 56.46C164.585 56.6217 164.273 56.7959 164.019 56.9831C163.766 57.1703 163.572 57.3829 163.437 57.6211C163.31 57.8594 163.247 58.1357 163.247 58.4505ZM165.134 52.4278C164.67 52.4278 164.285 52.5426 163.981 52.7723C163.686 52.9934 163.538 53.3168 163.538 53.7421C163.538 54.0569 163.61 54.3204 163.753 54.5332C163.905 54.7459 164.108 54.9287 164.361 55.0819C164.615 55.2264 164.893 55.3668 165.198 55.5029C165.493 55.3753 165.755 55.235 165.983 55.0819C166.22 54.9287 166.405 54.7459 166.54 54.5332C166.684 54.3121 166.756 54.0483 166.756 53.7421C166.756 53.3168 166.608 52.9934 166.312 52.7723C166.017 52.5426 165.624 52.4278 165.134 52.4278Z" fill="white"/>
</svg>
