<svg version="1.1" id="layer_1" xmlns="http://www.w3.org/2000/svg" xmlns:xlink="http://www.w3.org/1999/xlink" x="0px" y="0px" viewBox="0 0 222.31 67.87" style="enable-background:new 0 0 222.31 67.87; fill:#fff;" xml:space="preserve">
                                <g>
                                    <g>
                                        <g>
                                            <path class="st0" d="M14.84,13.84h3.96c3.53,0,6.6,1.27,9.1,3.78c2.51,2.51,3.78,5.57,3.78,9.1c0,3.53-1.27,6.59-3.78,9.1
                                                c-2.51,2.51-5.57,3.78-9.1,3.78h-2.87c-2.92,0.07-5.96,0.12-10.75,3.97C0.13,47.62,0,53.44,0,53.44h18.8
                                                c7.35,0,13.7-2.63,18.9-7.83c5.19-5.19,7.82-11.55,7.82-18.89c0-7.35-2.63-13.7-7.82-18.9C32.5,2.63,26.14,0,18.8,0H0v13.84
                                                h13.84H14.84z"></path>
                                            <path class="st0" d="M3.35,42.49c3.56-3.18,7.55-4.32,10.48-4.71V15.84H0v30.65C0.86,45.11,1.95,43.75,3.35,42.49z"></path>
                                        </g>
                                        <g>
                                            <rect x="126.53" y="26.72" class="st0" width="22.12" height="11.62"></rect>
                                            <path class="st0" d="M124.72,39.45V26.72c0-3.53,1.27-6.6,3.78-9.1c2.51-2.51,5.57-3.78,9.1-3.78c3.53,0,6.59,1.27,9.1,3.78
                                                c2.51,2.51,3.78,5.57,3.78,9.1v26.72h13.84V26.72c0-7.35-2.63-13.7-7.83-18.9C151.3,2.63,144.94,0,137.6,0
                                                c-7.34,0-13.7,2.63-18.89,7.83s-7.83,11.55-7.83,18.9v26.3c1.99-0.02,5.89-0.49,9.25-3.49
                                                C124.02,46.05,124.64,41.45,124.72,39.45z"></path>
                                        </g>
                                        <g>
                                            <path class="st0" d="M201.27,2.01c0.93-0.83,1.89-1.48,2.85-2h-33.84v13.84h11.88v40.19L196,67.87V13.84h0
                                                C196.04,11.76,196.6,6.18,201.27,2.01z"></path>
                                            <path class="st0" d="M202.6,3.5c-4.07,3.64-4.57,8.52-4.6,10.34h10.46L222.31,0h-9.52h0C211.38,0,206.61-0.08,202.6,3.5z"></path>
                                        </g>
                                        <g>
                                            <path class="st0" d="M69.31,42.87c-2.18,1.95-3.33,4.24-3.93,6.24c4.03,2.51,8.6,3.79,13.65,3.79c7.19,0,13.42-2.58,18.51-7.66
                                                c3.91-3.91,6.35-8.49,7.27-13.63H90.73c-0.63,1.48-1.56,2.84-2.77,4.06c-2.46,2.46-5.8,3.69-9.27,3.69c-0.11,0,0.11,0,0,0
                                                C77.05,39.3,73.04,39.53,69.31,42.87z"></path>
                                            <path class="st0" d="M89.93,12.06c-1.82,1.62-3.77,2.59-5.57,3.18c1.3,0.61,2.51,1.45,3.6,2.54c1.21,1.22,2.15,2.58,2.77,4.06
                                                h14.06c-0.92-5.14-3.36-9.72-7.27-13.63c-1.04-1.04-2.12-1.96-3.25-2.79C93.55,7.59,92.24,10,89.93,12.06z"></path>
                                            <path class="st0" d="M88.6,10.57c2.2-1.97,3.35-4.3,3.96-6.31c-4.01-2.46-8.54-3.71-13.53-3.71c-7.19,0-13.42,2.58-18.51,7.66
                                                c-5.09,5.09-7.66,11.31-7.66,18.51c0,7.2,2.58,13.42,7.66,18.51c1,1,2.05,1.9,3.14,2.71c0.74-2.14,2.04-4.52,4.32-6.56
                                                c1.84-1.65,3.83-2.62,5.65-3.2c-1.28-0.61-2.47-1.44-3.55-2.52c-2.46-2.46-3.71-5.47-3.71-8.94c0-3.47,1.25-6.47,3.71-8.94
                                                c2.46-2.46,5.47-3.71,8.94-3.71c0.19,0,0.58,0.01,0.58,0.01C81.09,14.12,84.59,14.15,88.6,10.57z"></path>
                                            <polygon class="st1" points="83.09,24.29 77.57,21.08 75.86,20.08 75.86,33.36 77.57,32.36 83.09,29.15 85.87,27.53 87.25,26.72 
                                                85.87,25.91"></polygon>
                                        </g>
                                    </g>
                                </g>
</svg>